<mxfile host="app.diagrams.net" agent="Mozilla/5.0 (Windows NT 10.0; Win64; x64) AppleWebKit/537.36 (KHTML, like Gecko) Chrome/138.0.0.0 Safari/537.36" version="28.0.7">
  <diagram name="ページ1" id="MxCbbv7MOLgasdzjiucZ">
    <mxGraphModel dx="868" dy="473" grid="1" gridSize="10" guides="1" tooltips="1" connect="0" arrows="1" fold="1" page="1" pageScale="1" pageWidth="827" pageHeight="1169" background="light-dark(#ffffff, #f5f0f0)" math="0" shadow="0">
      <root>
        <mxCell id="0" />
        <mxCell id="1" parent="0" />
        <mxCell id="OBpt39Y3jAKSA9RKNwWW-41" style="edgeStyle=orthogonalEdgeStyle;rounded=0;orthogonalLoop=1;jettySize=auto;html=1;labelBackgroundColor=none;fontColor=light-dark(default, #130101);strokeColor=light-dark(#000000,#040404);strokeWidth=1;exitX=0.018;exitY=0.11;exitDx=0;exitDy=0;exitPerimeter=0;" parent="1" edge="1">
          <mxGeometry relative="1" as="geometry">
            <mxPoint x="113.05999999999995" y="150" as="sourcePoint" />
            <mxPoint x="110.00000000000011" y="349.5" as="targetPoint" />
            <Array as="points">
              <mxPoint x="110" y="150.5" />
            </Array>
          </mxGeometry>
        </mxCell>
        <mxCell id="OBpt39Y3jAKSA9RKNwWW-2" value="desktop" style="sketch=0;outlineConnect=0;gradientColor=none;fontColor=light-dark(#545B64, #000000);strokeColor=none;fillColor=#879196;dashed=0;verticalLabelPosition=bottom;verticalAlign=top;align=center;html=1;fontSize=15;fontStyle=0;aspect=fixed;shape=mxgraph.aws4.illustration_desktop;pointerEvents=1;textShadow=0;labelBackgroundColor=none;" parent="1" vertex="1">
          <mxGeometry x="60" y="89.71000000000001" width="100" height="91" as="geometry" />
        </mxCell>
        <mxCell id="OBpt39Y3jAKSA9RKNwWW-4" value="CSV" style="shape=image;html=1;verticalAlign=top;verticalLabelPosition=bottom;labelBackgroundColor=none;imageAspect=0;aspect=fixed;image=https://icons.diagrams.net/icon-cache1/Document_icons-2697/647702-excel-1195.svg;fontColor=light-dark(#000000,#000000);" parent="1" vertex="1">
          <mxGeometry x="40" y="207.21" width="35" height="35" as="geometry" />
        </mxCell>
        <mxCell id="OBpt39Y3jAKSA9RKNwWW-32" value="&lt;div&gt;&lt;span style=&quot;background-color: transparent; color: light-dark(rgb(51, 51, 51), rgb(10, 0, 0));&quot;&gt;S3に&lt;/span&gt;&lt;/div&gt;&lt;div&gt;&lt;font&gt;csvファイルをプッシュ&lt;/font&gt;&lt;/div&gt;" style="text;html=1;align=center;verticalAlign=middle;resizable=0;points=[];autosize=1;textShadow=0;fillColor=none;fontColor=light-dark(#333333, #0a0000);strokeColor=none;fontSize=14;" parent="1" vertex="1">
          <mxGeometry x="110" y="199.71" width="170" height="50" as="geometry" />
        </mxCell>
        <mxCell id="YZPG1hd2n1wm4DBDqUJm-4" value="" style="shape=image;verticalLabelPosition=bottom;labelBackgroundColor=default;verticalAlign=top;aspect=fixed;imageAspect=0;image=data:image/png,iVBORw0KGgoAAAANSUhEUgAAAXAAAAFzCAYAAAAnjVKRAAAAAXNSR0IArs4c6QAAAARnQU1BAACxjwv8YQUAAAAJcEhZcwAAEnQAABJ0Ad5mH3gAAIRVSURBVHhe7b13nGRXeaf/nBsrd3VO0zM9OWg00owySkgCATbBGEwyYIwxxmt7jdfrdVqvCct68f6wWXudF2yLsDbYJlmAkEAgCeU0CiONNJo80zlVV77h/P6o6p7u6lTVXd1d1XMePoV6zrkV773f+973vEFIKSUKhUKhqDu00gGFQqFQ1AdKwBUKhaJOUQKuUCgUdYoScIVCoahTlIArFApFnaIEXKFQKOoUJeAKhUJRpygBVygUijpFCbhCoVDUKUrAFQqFok5RAq5QKBR1ihJwhUKhqFOUgCsUCkWdogRcoVAo6hQl4AqFQlGnKAFXKBSKOkUJuEKhUNQpSsAVCoWiTlECrlAoFHWKEnCFQqGoU5SAKxQKRZ2iBFyhUCjqFCXgCoVCUacoAVcoFIo6RQm4QqFQ1ClKwBUKhaJOUQKuUCgUdYoScIVCoahThJRSlg4qFMtHIqXE8zx8z8NzXRwnP/1vJ5/DdR2SiQmSE+PkshkcxyGbSTJw/gy5XBY37+C6DkgJQmBaFrphYNsB2jt7sIJBTNPCsgMEgiEisTiBYAjTNDFMC6Fp6LqBaZpouo6u62iajtA0hBClH1ihqFuUgCuWje/7uE6eXDZDKjlJanKCfC6L4zikEhNMToyRGB9loO8sk+NjZDMpVvtw0zSdQDBIQ2MLLe2dhCJRYvEmguEIwWAYwzSxgyFC4QihSAzLsjFMAyHUzaii/lACrigPKXEch8mJMcZGhhge7CObTpJNp5lMjDM2PMDwQB/ZTLr0mTWFrutEYnEaW9ppbm0nGI5gB4KEwhGa2ztpbG4jHIliWnbpUxWKmkMJuGJBXMdhbGSQvjMnOXvyGKnkJOlkgsTEGOMjw7hOvvQpdYtlB4g3tRCLNxIMRQiHI/Rs3U77pl4aGlsw7YByvyhqDiXgilm4jsNg31meevhHnD99nFw2QyadIp1K4nte6eYbFl3TCEWiRGMNNMQbaGppZ9elV9LVuxPLDpRurlCsC0rAFUgpmRgd5qmHf8RTD99HOpXEcx183y/d9KJE1zWCgQCRSBjTNGnr3sL+q26iu3cndiBYurlCsWYoAb/IkFIWFx6zjA4P8MyjD/D0ow/g5HOlmypK0DRBMGATDATQNIGuG7R29bD7wNVs2raLQKjgO9d1vfSpCsWqoAT8IsF1HMaGBxkdGuDksSMcOfw4E6PDqx4VshERQhAK2ti2hTEl1kLQtWUH2/ZeRnNbFw2NLYSjDWhKzBWriBLwDU46NcmpY0cZPH+Gl488zdmTryjRrhKGoRMM2NiWiaYVwhBlcUG0u3cXnZu30dGzlY7uXiXkilVBCfgGJZtJc+zIYY4+9xQnX36ByYkxJdyrgCYElmUSDNiYpoGkqOJIhKbR1NZFR3cvO/YfpLNnG4Zplb6EQrFslIBvMCbGRnjmsR/z0nNPMT46xOTEuBLuNUDXdYIBi0DARiAKGakUxVxAQ2MLDU2t9O7az879hwhFYqUvoVBUjBLwDUJifJT77voGLxx+nGwmhes4pZsoVhkhBIauEwkHMQx9ljVe+H9RKAkQCHHo+tvYf9UNWJYKSVQsHyXgdYzv+yTGR/nxPf/OEw/ei+e6pZso1gG9KOKmacwWcHlByqUE3TC56fVvY8/lV2NZNqLoR1coykUJeB3ieS7jI0OcPHaUB+7+JqNDA6WbKNYZQ9cJBm0s02QqgbNUwAvuFUFLeydX3fx6OjdvJ6IiVxQVoAS8jvA8l/5zpzlz/GWeffzHnD35SukmihpC0zSCAQvbstA0Mb+AF73lhmnRs3UXvbsvZdueS4nFm2a/mEIxD0rA6wApJeOjwzz/1CMcefpR+s+cwvOUu6QeEAJM0yQcDKBp2oICXvwDXTfo3X0Jm3fs5ZIrXoWpolYUi6AEvA44/OgDPHb/PQz1n6v5an+K+TFNg0goWPRzLyzgFC/YgWCYzTv2cOj62+jasv3CCykUM1ACXsPkc1m++eX/y8tHDivh3gDYlkkwWEjDX0rAAYSmEYs3ccWNr2X/Fa9SMeSKOSgBr0E81+XlI09z51f+gcT4WOm0oo4xTYNQMIA2o4HEQgI+c27X/iu46Q1vI9bYpJpPKKZRAl5DuK5D/9lTPPj9O3nh8BP4/sVTvvViwrJMgrY9I/1+aQGXshCe+Oo3voMd+y4n2tA4vY3i4kUJeI2Qz2V56pH7eOSHdzEy2F86rdhg2JZFMGAjhChbwKf+6N29n2tveQPdvTtVk4mLHCXgNUD/uVM8+eAPeeLBH26oLjeKhRECAoEAtmVeGCxTwIUQNLd38arXvpmtu/erSJWLGCXg64j0fZ59/CEee+AeTh9/qXRascERQhCwLWy7KMBlCjgUrgCxxmb2HLiKK66/jXCsYfo5iosHJeDrRD6f4+F7v8sjP7qL1GRCFZy6SBGi0CTCsszKBLyo96Zp0bVlO29894dUgayLECXg60AmleTeb/8rj953txJuBbqmEQ4FLyxqViDgyMIWwVCYj/z+/4dpznDJKDY8SsDXmNGhAb739S/zwuHHS6cUFzFTkSlCiGUJOEBrRzev+5mfo72zB91QQn4xoAR8jfB9j9OvvMT3vvZlzp0+XjqtuMjRhMC2LawSC7oSAUdKovFmbnzdT7Fz/0HVcPkiQAn4GpBJJXnuyYf58T3/ztjIUOm0QgHTxa/sC302lyHgIIjGm7jihts4cNUNBELh6e0VGw8l4KtMPpfl4R9+lwe//x0y6WTptEIxC0PXCQUD0/HdyxFwiSQSbeDA1TdyzS1vwLJV04iNisrJXUVc1+HwIw/w0A+UeCvKw/U88s7KK00mJyd44oF7ePz+e0qnFBsIZYGvEp7r8sSD93LXv30RV3XKUVRINBJCE9qyLfCpfwtN54bb38yrXvOm6ecpNg5KwFeBfC7Lgz/4Nj/89r+pMEHFsjANg2AwMCXTyxZwCWiazqt/8u1ccf1t6IYx/XxF/aNcKFUmn8vy/W99hXvv/Fcl3opl47gubhVcKRQjoB794Xd58ZnHVamGDYYS8Coy5TZ5TPkdFVUg7zhVMwKSiQke+N43OH70OXxPVbncKCgBrxK+7/H0I/fxwN3fwlMniKIKeL6P47jTKfYrZXSonwe+903OnzlRtQuDYn1RAl4FpJS8+MwTPHD3v5NMTJROKxTLQkqJ47p4vl86tWwGz5/mR9/+FyYnVKOQjYAS8Cpw4uhzfPurdzA2Mlg6pVCsCM/zqxrFJKXkzPGXePyBe2YtiCrqEyXgK2R8dIgH7vl3JifGVv22VBSqiE4/NCHQhEDMepQ+S1HveJ6PX0UrXPqSh+/9Ds8/9TCyiq+rWHtUGOEKcJ083/23L1V10VIIgSj8URBsrSjMTImzmA4tm4kvp2ZmhJ1JiZQSv7iL1a6uTwRg21ah0uAywginNr4wfuHvn/mF32DHvgOqs0+doizwZeJ7Ho/86HsrFm8hBJqmYegahmFgGgaWaWKbJpZpYug6uqahaQURLxchCuKvaRq6rs/4b+GCoKgfZDFDczUuwPd848sMnD9TOqyoE5SAL5NH7rubH/z7v5QOl40QAl3Xi4JdEG3T0NF1bVUEdsrFohUvBpq2Ou+jWB2q7UaZIjE2whP330M+my2dUtQBSsCXwdmTx3jkR3fhuk7p1JIIITAMHcs0sUwDQ9fQ1lhIC0I+JeZKyOsBKWUhpLDKeJ7L8aPPcezI4dIpRR2gfOAVkstm+MaX/pYjhx+vaAFICFFwh+gF0Zym1Kc56w9wfY9c3iHvFDLzXM/H8318v+DfnhLjgjWvY1smlmWgT72HLPWYz3i/GW8oJati4SmqSzgYuNC5h1I/d+U+8MI/BTv2XcbtP/VuGlvap8cVtY8S8AqQvl+ocfKdr5HPlXfLOSXcpmEUVqNKmbHA6EtJznFJpTKkMllSmRy5fOVWPkDANomEgsTCIeyANR2tspCAT/1bFhc+FbWJZRrYVqEJctUEXIIUcNsb38FVN74WQ7VlqxuUgFfA2ZOvcOdX/oHzZXbU0XUN05iyhmecWEV8X+I4DqlMlmQqSzKdIZd3SrZaOaZpEAkFaYiGCNiFhVHmEfDCia1EvJYRAsLBIEKI6go4YJgG7/jgr7N1937lVqsTlA+8THLZLEeffaIs8RZCFN0ZFvqM7ipTuK5HMpVhcHScE2cHOHV+iOHxBNlVEG8Ax3EZm5jk1LlB+ofGmUxlcNyF0/2nFjwVtYeUhYiU1cB1HJ586Ieq4FUdoQS8DKSUnDv1Cs88/mDp1Bx0XSv6oa05Iui6HiPjCc4ODHO6b4i+wVHS2dyaWbtSSsYTSc4PjNA/NEYimV7Q761EvHZxPW9VLvQAR599ipMvv1A6rKhRlICXQS6b4Z5v/hPjS/SzNAwduxi7PVP68o7LwMg4J88OcH5ghNHxSbK5/JoJdymO6zExmaJ/eIyB4bEF/exTC6RKx2sL3/NX7diRvsddX//ysiKsFGuPEvAyeOjeb3Pu9InS4WmEKPiZbcuaFWHi+z6j4wmOn+mnb3CERCq9qOtirXEcl7FEilPnBhkZn5zhE5+NssZrCwmrWvHy2Esvc9e3vlY6rKhBlIAvQS6b5Uff+frMFb9ZiGL3FMs0Z4mc5/ucGxzh5LkBUplsVSvKVRMpJY7rMTA8zuDo+KpZdorqIaVc1ePJtk2+9a//RHIyUTqlqDGUgC+ClJKHf/jdRUVtKilnSrw9z2c8keTo8bMMDo8vpPs1h5SSsYkkw6MT81p3ygCvLXx/9dwooYBNOpXkzq9/ZcE1EkVtoAR8ESbGRhatdWIUI02EEEgJmWyO80MjvHKmn3Q2V7p5zeP5PqMTSYbGEvN2RldulNpBrmLilaZpaAKefOQhzp89XTqtqCGUgC+AlJInH/whmXSydAqKsdWBafGWpNIZzvYPMzQysWqW0Vrg+X7BEh+bwPPmCoQS8dpAzqgyuRoEbIv+vnM89tADdX08b3SUgC/A+MgQr7z4LK4zdzXe0HUs00AIgS8l45MpzvQPFcLyNsDBLqUkMZlmLDH/xUux/kgp8f3VO9YClkk2k+HU8ZdJjKvuPbWKEvB5kFJy+NEH5i2zqWsalmmgicJPNzKW4PT5QVLp7IayVHwpGRlLkEimS6eUFV4jyFX0g9t2IZ3+pRee5+UXj5ROK2oEJeDzMDE6zLnTx3Hys/3YQggM05jOrhwcGefU+cF5/cUbAc/36R8cI5tTmXm1iC/9Vbvjs4r1UEaGhzh96jhOXh0DtYgS8Hk48fIRTr401+qYKkrl+j6n+wY5dX5w1SygWsH1ffqGxuZcpJQVvv74/uq5UTQNTKNgqDz56EMMDvSVbqKoAZSAl+Dkc4yNDJEvsb41TcM0DXzfZ3B4jOHRiydGNpd3SUymN/zFqh5ZrX0iEJimAcCxoy8w2N+3au+lWD5KwEuYGBvhxNHnS4cL5WARjI5PMjQ6saqJFLWG7/sk01llhdcgvlwlP7gAQy/Ig5SSY0ePzLugr1hflIDPQErJ+MgQ50oqDpqGjmEYTKbS9A/PdSdcDGTzeZIbbKF2IyBXyYUiKNSxn+KBe+8hk567oK1YX5SAz8DzXM6fPoHnXhBoIQS2ZZHL5zk/MHLRLuj5viSVztZULRdFIVpoVS6qolBZc4qB/vOceOWlWZso1h/V0GEGmXSKL/7lpzl78pXpsUKzYYOXTp5lMpWZtf3FhiYEXe3NRMPB6bGVHD7tDePs7zlLNLA6WavZvMErg22cGGzD9efWZd8ICCAQsAtF1KRkJQ0dpjp6SEBKn6HRCQZHJqa3O3TVtfz2xz89/W/F+qMEfAYTYyP86X/79VmiFA4G6Bsa4/zgyKxtL1aa41FaGhvQtIL/ezmHj204XLX9Fa7f9QpBa/X9qqdHGvnXR65kIhMundoQBOxi45AqC/jw+CQDQxeSeIQQfOFr38MstnRTrD/KhTKDof5zswTJMg0mUxn6hkZnbXcxk8pkV1SDw9A9Lt18hletkXgDbG4e453XPULQWh1Lf71ZzkV0OUgpOX7saOmwYh1RAj6Dl59/evrvqQJV5wZG1uwEqQdyeWdFi7jxUJrLNp8mtEbiPUVnfJJdnRszlnktj8/7vn9X6ZBiHVECPoOXnrsg4IZhMJZIkrlIFy0XQsqCFV4pmvCJWBk6o+O0NUyWTq8+QtLbPEw8kMLSHYotgTcEqybg87zu048/snrvp6gY5QMvkstm+aP/8otI30fTBI7rc25gmHRmY952r4SAbbJ1UwcsIB5CSGJWmo7IBO3hBI2BJDE7h2W4hIJ5mjtTpU9ZE1KTFuNDIRxfJ5W3GM2EGclEGUpHGErHyHuF9PF6w9B1bNuqqg/cLy5iDs1YxAQIhsL8n7//ZyLR6KxxxfqgBLzIKy88wx1/UVxhF4KhkQlGJxLzGSEXPQLY2duNrmvTAm5qLj0NI+xs6mdzwwgNdg5DeOiaRBM+mij+kCaI+OzXWytkBigWWJRS4EmBLzU8qZFxDM4kGjk+3sbJ8VYmc6G6sdF1TcO27eJdRZUE3PcZGB5jZHz23ZJtB/jdT/4xe/dfNmtcsT4oAS/ynX+5g4d/WPDvZXJ5+ocWbvY7ha7rBIJBtmzdwU23vY6de/bR1NxKIBic7o3p+z6Ok2dibJShgX4evO8HPPLAD8nlcjiOM68FWw/0drcRDNiAz96Wc7ym9wjxYHpWM+d5qREBXwxfCp4f6uDrR6/Gl0t+o3VH0zQCtlX87asl4B7nB0cZT8y+WzIMg7e95wP89LveN2tcsT4oAS/yZ5/4TUYG+5ESxhJJBkfGSzeZJtYQp6mlld179/OWd/wszS2tpZssSiad5olHHuBH3/8ep44fIzFRf70ou9qbiUeCtIfHeN32Z9nSUGakTh0I+BRfP3o5zwxsQS59WVpXVkPAPd/jbN8Qk6nZ6x1CCC697BC//z/+ZNa4Yn1Qi5hFayNVbODqui7J9PwJO6FwhMsOXcW7f+5D/P4n/xcf/A8frVi8AYKhEDfccju/8bsf52c/+BGuueFmLNsu3WxdMS2Ljk1b6OzpxQ5cSNyZwnU9bMPhsvbT9MQ2ZsH/63uO0R6e7QOeQmgaoVgTDa2d2MHw+taFWY2LvwTXnRsuKqUknUnjuovfnSrWBv1jH/vYx0oHLzbyuSwP3vtdPNchnc0xPpGcYZ8UaO/s4s1vexdvets7ueSyKwgE54papZiWRe+2Hew/cJCm5uaC37HvfOlma4puGLS2d7Fr/+Xsu+xKNvVuJxJrQPoe6XQSWYwBbwrDwe5Rru15BVuvIL1eBxEoHVwjXKCCoKKg4RA085xJNJP3CpX5AEw7SGvPDjq27qGpcwuhaBwQZNOTqyOmSyEEpmFMW+DVwPd9hsbmbw8Ya4hz7fU3V+UcUKwMJeBAMjHBY/ffg5N3GEsk59Q7ue31b+Qd7/sgV15zPbGGeNWtLTsQYPuuPWzbsRtfSk4dPzbvibPaBIIh9lx6iEsOXk1Xz1YCwRCWHaCxuZWW9k5CAZMd1iu8pusst3T1c0nPALFK0+DrSMCFgJidoVFLYXgeeRkg3LaNrh0HaOrcjB2KoBsmgXCMcEMzwWgDTjaDk5v/Dm61EKsg4I7rMTw2f8nkUDjMZVdcTbypuXRKscYoF0qxBrgsFgVKlbhP3vDmt/LeX/hldu3dv8opxIKuni28/d0f4MZbby+dXHVsO8CVN9zKJQevJt7UMt11iKKPNRZvYvdl13Dpda/hVVvy7G4dIx5eW6FaDwKGy76W87y26yWuPrCJLXsPEmtuRzdmhxxagRDNnVvYeuA6mru2zpqrRxYrWpbNZhkaHCgdVqwDSsBnkMs7uMVO7EIIbnz1a3jH+3+RUDhSuumqIIQg3tTEz/3ir3Ljq18zS0RXCyEEoWiMm3/irfTu2INRbKU1H7phkmi4hke7P8ZYw9aqWXu1jmPHONHxTsabbkQzF3YbCKERCEfZtPsy2np2ommrv/9WC2eRbNtcNsvwYH/psGIdUAIONDa30tbZQ84pWB3BUIjbf/ItvPdD/4FQaO0LIIUiET70a/+ZQ1ddW3V3zUxM02Lrrn288WfeT1tHd+n0gqTNLh4J/yGn9ZtwWS9/yOoj0ZjQennO/nnO2rfhi/LuwEwrQPeuA3Rs3YdpLyz4tUxukR6YmXSK82dPlw4r1gHlAwc0XWfPgUPksnkaGpu4/uZbecNbfoZ4Y1PppmuGYZrs2X+ARx74EelU9TMXTctmx74DXH71DfNGmSyFFCZj2l4EDhHZh16uc7mOfOBD2qW8YL6XEf2yiu82NE0nHG/GtGwyyQk8p4I3rpDV8IEPjycWrHkjpaSndxtXXnv9qhoYiqVRceAzkRLXczGK7dNqgfu/fxf/5zN/VIjrqhKWZdO7ax+XXH4V4WisdLoibDnOFvcuNnvfx5bzL3rNok7iwEe0PTxrfYiU2FQ6VTGj/ac5e/Rp8tnV6WijCUEgYFc1DvylE2cXFHCAG2+9nV/+6G+jGxeicxRrj3KhzEQIDMOsGfEGeNXNt3HN9TeWDi8bwzTZse8A+w9evWLxBsiJOCeN13NGfzUulVvytciItocj5vurIt4Aje09bNp9+eq5U6psBXuet+giJsUww4upL2ytogS8xtENg7f8zM8WLywrp3f7bi45dA2hSPWKEeVFA8eNN3PeuKbmsxaXYkTfwwvme0lo1YskEUIQb+ume+elGNZ6+Y/KJ5NbusSDk8+Ry278KKRaRwl4HdCzZStve/f7S4crQhM+r95ncc3Nt2Hb1RcRR0R43vh5xrVtpVN1w7i2lReN9zCh7aj6XZim6TR39bJp1wEMs7pZt9X0fQOkyygX7Lou7ozesYr1QQl4HWDZNjv37FtWRIwuJC2BHL94cIid178LoZVnyRuaZGdzjl3NWSx9cWtsCl/YvGC+u3S4LvDRGNYuLYr30uhC0hV12NuaJWp7ZcmnEBqNbZto6ehiRr/gFSOEqKoXJZNdOjlLSrmizkyK6lDFw0ixmnR0b2L/5YdKhxcloHscbBvjI4f6adzzGjJGW+kmcxBA2PTY3ZxjZ1OOnU15LmnNECtTpHzKu0DUGhIdH6OsxWJdk2yKOexrzbK9Mc+lbVmaQ+XVBtFNi54tm9jV5hM2lhbKsihnx5SJL+WcTOT5kFKuT9kAxSyUgNcJjY3NbO7dXjq8ICHD4+ZNw7xjzxB2z9X0R28o3WQOAmgIuOxrzbE5nkcThfWxzqjL3pYs8YC7oFYYMkWDf4yt7ndKp+oCHYcW/3navCew/SGQ81uXhibZGs+zuyVHwCgIWFPQ45LWHO3h8kRchrvo3bqFG1pP0GmPlXXRWAytiuZ3NpdXi5N1hBLwOsEwTRqbWwgGQ6VTc7B0n5/o7eMt2/qwmrdzJnobrra0+yViFyzv1rCLPkMTNAHNIY9dzTmi9oXoBNMfoyn/KFuy/8wlub9lv/N5urxHLzyxzoj7x9jjfJlL83/HruznaMvdS8g9hZAFYbYNnz0tWXY05ea4laK2zyVtWTY3FC58iyMYjV5JR2cnb2g7zL7I2RW1eKtmLHY6ky3LsM5mM6TT1c9PUFSGEvA6or2jk6aWltLhWehC8nN7TvKG3kFCoRD9oWvImO2lm83B1CQ7mnI0h7x5BWhKxHc05YjQT0/6n7lk8o/Yk/08u/w76ZaPEvePI6hf603DIyL7aZfPsE3ey578l9mT/Cw7k39Oo3OYHfEUPTEHY4GzJmRKdjTl6YgsbYl7wuaVxrfSHs7z6pYX2RVZfhXKagp4KlOoC7QUbt7ByVfJBaRYNgsciopaJBZvJBJtKB2eRiB5z+7TvHrTKCHDY8LqZTh4AMnSNTm6Y3m6ou684g2FxA83fYbwwOe5dPz32Zz5Bq3iFHFjHEvkV2RB1iK68Ikak7Qa5+lwH2XP5J/Q2P/n5MeexV/AvQIQMn22xvOz7lQWImu0caT5vbRYSW5seolNgZHSTcqjSgLuOO6iyTulbKw9Xp8oAa8jotEY4fD8rhBDk7xxax+39QyjCUlej9IfvoassXjJTwG0hR32teTm+relxHfS5CePM/nS50g992nk8P0ERJJY0MMyqxv9UIsYuiBiQ8jIIhKHyb70Z0w8+V9J99+Hl08g/blCHQ94bI3nsfSFhX6K/vD1DAUP0B0Y5w1th9kcHKroYiiEmLvfloVkMpUpOzQwFA4TrUIimGJlKAGvI4SmIYq9NmdiaT7Xdozwui1D2LoPCBJmDwOhq0o3nUNj0OXyjgylL+tnE+QGniP57N+TfP5/4Y88gkGOkAUhSyx/4WyZT6sKYnnvLwQETEHIAlMH4QyRO/llks/+H7Knfow72TdLyIWAzohLR8S90Mx5AXxhcjr6GlzNpiswwe2tz9Fuz98FaD4K+2EZX6oE35ekMrnpapxLoek6uq7S6NebuWqgqG1K9EATkj1Nk7xpaz9NgUL4ly90+sLXkNcXt5AsXbK9KY81w8Pie3lygy+QfuFrpJ/4v3ijT6PhYhkQtMCcubpZKQLKLV44PCF5+pg/72MitbgoLohZfCwTQy+IeMAEXXj4yRNkj/wTqae/QPb0Q/jeBd+3qUs2NziEzMUFUaKRsLcyZu8CoDswzqubX8DSlvajAwitOndBubxDfokm3oraQwl4HSF9H1nif22y87ymZ5CeSGbaDstrEQZDV87abj5awy7xwAXL0csmyL5yL5ln/wnn9IPgpNGDEDQLFqi+kIO8XIJQZkVW7jvs8av/Oz/v4467y7vNL0Xohc/ACgxHIQS2IQiaUCib4+CPvEz2yL+Rfv5fyI+dml4EbLA9NsWcBdcVpsjpcYYDlyBF4XTcGR7gyobjpZvNi1YlF0ou75Av033C1Psu9cUUq44S8Doim82Qy11IczY0n6s7RjnQkphlhZ2O3rKk7ztg+HREnOlwuPz4aVJPf4H8y99BTp4H6WNaEAoKLKMKVp4BIlj+3X7fKDz4vD/v49NfdhmZWJ4VLsziXcAKj3xDFwQDYNvFr5SfxDn5IzJP/yPpY9/Dz6cRArY0OMTsxYXRFxYT9nZSxUQrTUiubzpGb3DprjdCFIP1V4Dv+4X47yUKWM1EuVBqgxUexoq1ZDIxQSp5oR5qs53jTVv7i37vAo5mc7zhTUsqZVPQozHgIb08qaPfIfXgZ/EGnkE6KYSAoAGhMFSlKZAAItU72s4PS/72zsVFcUEEYK/MCp9C1wWBEIQCRQ31PfyJM+Rf/BbJw1/ETQ5i6pJdzUuH2yWtTSSs3ul/h/Q8t7S8QFhfuC6JJgRa0WpfCXnXI53NlXrnFiUQCC6rtIOiuqx87yvWjNHhISbGx6b//breAeIl1t1I4FK8JZJ2LF3SEnQwvQSTj3+e/Itfg/wkSB9NQMgE2wRRrZpLNogqCOZMPv9tl0S6Esm5gNCKIl6Fo1+YYJoQsWYYwl4O79xjJJ/6R5yJc7SGHELG4r7wnN7IpNmDJy446TsDE1zX+BLaArH1hUXtxS/U5eA4Dtns0unzMxGahla68q1Yc9QeqBekZGSGgLcFs9zcPTdueDB0WenQHKJGlobcy6SeugN/4PB0TQtdK/i7Tb1oqa5gwW8areiyqFBnYiHY2iHY2iHoaRWESxY/B8clX/2hV1bW4LyYVTr6dQF64beLWGBoF76qHHmJ5CN/SfbMo3SFloosEYwFdpMxWqdHTOGzIzxEd3B01pZTaEKsOInH9yXpTK7i9Hld19GqcnumWAnVOIQVa4DjOKSSSXzfRxOSN2/rm2PVecJmzN47a6wU05ukcfSHyCNfxBt4BvyCBW/OFG8Krc+WXH0rB7O4eFghr75c46/+k8Vf/SeLz/6qyWuv1Gd9nFQGvvJDj4Gx5Sm40IEyF1QXRSu6Y0RBxEMWWMaMny49SObpO4j3fZNg/tzcMKIZTNjbSJnts2qqN1tJdof7sEuiUoQQaNrKFzBdzyORqqxTkGmaRGOxFV88FCtHCXidMJmYYKDvHAA740muah8v3YRJs4u8vnCmpumOsWnoqzSd/RfkxGmQfsElbBTEe1aKeLW6yi3T0u1p07j9Sp3br9R5yw0GP/Nqnc7mCx/Il/DscZ/vProCK7waAs7s30oTEDAKv+mUiAvfwTz9PXoHvkjj5JNo/vzuClcLM2n24M/wNxnCZ0d4kFZrdrs6AVVxYaQzObK5ysIHg6Ew3T0X/PWK9WPlR4BiTRgc6OOF5w6jC8lrewaImHMjBiatTbNO/pmY7ig7zv8VHWM/wPQuLIQGzILgzNGCarhP9OVZ3zPJ5uHYOZ/r92sc2D77Qw6NS+582OPM0PIUXBjFO42VUnKxEwIsvSDiU0aqJl0ak4fpHfgiTZOPThfIKiVpdeOXxFq2WJNsCo5giJnJQgJRhQXM8clUWbVPZhIMhenetLl0WLEOrPwIUKw6vucx1N/P2OgImyJpemOZeTP8XC2AnGeXhjPH2HX2z2lMPoM2QzgCRkFo5r0TroYFrq38CDs96PMHn3cYmYBbD2o0hC98KM+HHzzlc+9THmUmEM5GVMkKn+e3EqLgSgnMuJ4K6RHK99E7+CVaEg8i5NxIGk/Yc9rS6UKyPTREUL9guQshVuzhyjseiWRl7hMAy7KINzWVDivWgRWeXoq1YDIxwb13fxspJfuaJonb81tvbenDBNxhNOmiSQfbGWTLwBe55PQfEU8fma6xIYriPdNCnEW1/N9VEPB/+K7LnQ95fPcxj7fdpNPbMftzjU1Kvv6Ax9llWuFVudMQhYXMUkTRPRWedZGQ2M4oO8/9FTvP/TnhzDE0mUeTLoafojX9NIacGzrYGxqm0SzcOQkBmq4tsPPK59zAcMXWN8UOUY1Ni+cZKNaGFZ5eirXg3JlTPP/MUwQMj+3xFKF53CcAYXeQa/s/wYGBz3Lw3H/nqlO/Te/YtwjIJLpW8HGbesFtYpuLnP/L9FvPQcy1TCthYNTnc9/2SOfgnic8Uln41bfqhErCG+9+wuOJl5Zphc/vcaqcRV7H1AsibuqFfVDYF5LO5MNcefq/cs2p/8xlA/8f153/b/Qk70ebxzI3hM8VDSfRRKHWjbHCCJBkKrss6xsEgUAQ06pWjKliJVTjNFWsMnff+Q0AOkNZ2oPzVA2cQcCboDvzGB3OizToaSI2RIuPiF0QEttYQleNKh0ZKxTwz/6bx9B4wUJ87EWfB5/3eMerDa7cM/vDpbPwxbs9UtnKrckquJELLGHJT4l46f6IWJImOUBX5ilizlkE81+cAXZH+gjr2UICz5xFi/KRSEbGZy+Klouua2zfubt0WLFOLP8oUKwJ46MjPPLgfQC0BnPTBatWDVGMbV6B8E6zgtfoH5XccdcFSzSZgbse9ZnMwEffZsy5e/j+kx4vnKpcwFfyGWexiAVeLWzNozc4hK5rK/rYmVyedBmNi+dD1w32XHKgdFixTigBr3G++qW/x/M8NCFpC+WIWXNvr6vKCq3mWSxDT6f4wt0ufSOzX+DUgCSdhduv0rlm7+xDdzINf/61+dcGFmUFn3EW1broLcHOcD+GsXz3iZSS8UQSt4K6JzPRdI3N28rvzapYXZSA1zADfed54N57AAgbLh2hHIZWLcUpCrVR8rBm+MCnHisRpmV83PMjki/ePVdgbrlcozUOIVvwW++aa4V/7X6PZ16pzBG+SHOdpZn5G+kzaqzMfKzkt5uH7eEhjBWU9M3k8iRTWfxlLF4CaJpOU/OFbFHF+qIEvIb5yhc+N119MGx6tASWd9s7LyFgm0DsLXnsFIgOEM2zH0SXcbT4yxPwb/zY5czgbGXtahHcckifDiO8Yb/O5TtmC1kmBx/4dI4PfybHn/2bw+hkGW8+9zqxNCZQ8vuIZgq/XcnvyT4BhSKDVSGkO8T15fmvASZTGbL55bvhdu7ei77CBVRF9aj0lFSsESePv8xLLzw/HeYVNDzigWW4COYjDKJbIJZucF9AFAtbVVAOForiXYaGzqRvRPLvD/kkZjQ81wTceKnGpVsvHK6xsOC9rzUo9SY8fUzyf+/0uOtRn1Rm9ty8VPqTmkCs/MVPoYFoF1BFo7XNnL82ylKkMzkmJlP4foU7ZQY33np76ZBiHSnzMFSsJWMjw3zjq19mZGRoeixoeDTZy7ecptGBxvI740wjiu6VSowvr2iFl0nOgX++1+WRIz4zNaYlLrj9Kp3ulgtXD9uEWw/q7N9ayRWlBLkMAQ+XL96zaBaV/+YL0GrOLaOwFJ7nM55Iks6s7C7ukgOXlw4p1pHlHIqKVSSXy3L/vXfzzBOP4RU7pAghiVkO4QXivysiACK2TNGr1B/ug6zgIx875/Oth7xZrg9dg6t2a7zmkDbH5729S/DTNxqElimM0qtQwMXySwMIo3jhrOT3W4DmZQh4JpdjbHLGbc0yaOvoJN7UUjqsWEeUgNcYx18+yr133UkyOTk9ZghJazBXleRI4hVa0StBAm55VrjjwqMv+Dx+dPbG8Yjg3bfqbGqde6hGgoI3vUrn0M65c2VRiXivFAFERMENtULieqqizvVSSkbGJ3GclUUwveYNb1pR/Lmi+gi5nFxaxaqQSk7ylS98nrv+/WuzUpyDhsc7dp7h9VsuuFSWhQbsFsturiB9IFGh8BkgYktfNHIOPHzE47EXSwUc3nWrQSQ4/9XLceHepz2ePe7Pqkq4tVNw+5U60dD8z5Oy+F0q8UoJEE0rMHskyGEJA5WvDcxk0gtxx+AbyPoBkPLCS0kJCKZHinPpTI6XT53Hr7Dm90yEEHzmr/9BVSGsMZSA1wpScvjJx/n0x34bz5vtd4iYLh+65ATXdFR+6zyLFhCd8wtaOSxLwCm0UxNlWJ6+nO4tMY1gnkqJJSzneTIPTJZ3dzDNSgUcIAXyvIS55U7KJuUF+erwbYy4DUsLuJS8dPIcqRX6vnfv289vf+x/Eo5ES6cU68hKDkVFFenvO8dff/Z/zhFvAF2TK0/gEYXQt3UhVZ4vXCs2RZj5WEyEp6j0eVICuQrFu1oEi48VIIRPUC8nxAZGxidXLN4Ar7rpVuzACj+4ouoscpgr1orhwX7+5x/+DqMjw6VTQKFLedhcoYCHQVjLt75XhCyI+ErcBlUlX6HrpJpoxRj8ZbqxADQktlj6NiidzTEwssK7NsC2bXp6t2EYK/jQilVBCfg6k8/n+Nf/94/0nTtTOjWNBth6GSbsYqzVna8sWralSTw5kCs3BFeMdCm4L6as74U+72oSXJmAC8DSFr+gu67HwMgE+RUuXAJs3bFblY+tUZQPfB2RUvLdb/0b/3zH/yWTXri0Z2swxyevfZ4Ge5kiboDoXTgCQkogLwtuBacYOeKVPGThv3JK/BY6auSMOVESNqcXurivJ9Irfr+pz7jY551JcVwEp+qlFx9Tf5eWI7AWWSz2QZ6RhfWEZZDzTX44cZDn0jvn9YH70mdkLMH5odFl1zyZyVvf+V5+6p3vJaBcKDWHEvB15MnHHuKOv/2LRa1vigL+R696jrC5TKdtHETXhaYD0gUmCwIiJ4HMjKSbmdbofA8WEe+LgZkiP/W3KIr41H+nhN0uuq4ixX0QuHB1mI5GWcYuzUuDByYO8FRq77wCnspkOdM/RCq9gpXSIpFolJ//yK9z/atfo5oY1yDKhbJODA3288PvfZv+82dLp6pPWIAG0pPIVyTyIYl8CuQxoB8YL0ZkpIpiniv6iGda4zNF/WJGzrjITVnzTvE3ywJpIAlMAEPAKZBHQD4C/jMSOS4LrxFaxNovAzFPSz0Az/cZn0ySzqxcvAF27NrHzt37lHjXKErA14F0Ksk93/4mjz54/7JaWlWEDvgSeUIi7wd5vCg0M0VZsTpMib1XvCAOgHwC5NOycKGs8m8vgVQmy8jY5JywyuUgNI2Ori5a2tpLpxQ1ghLwNcbJ5/nend/g61/50uqLtwsyAfJZkK8sI35bUX18kMMgnwY5XhT2Kh0G2Wyec/3DOMUSDCulqbmFfZdejq6iT2oWJeBriJSS+75/F//ypb8vnVoSX1ZwCysLER9ysng7X53zWVFN/IK7RY6DTC2zrO0MXM/j3ODwsjvtlCKEoKu7h/2XX1E6paghlICvIc8+9Tj/7x//DsepzBSWEvJ+mQIuQaaLPu1c9aw7xSrhFxOdKrzQ+nL2qTswPMbE5MKRTJViBwJcd+MtKvOyxlECvkYcO3qEL37ur5hMTJROLYmPIOeVsatk0ZpLVSYGinVGFtYlZLI8N5eUAn/GqTuZTDMytsyYxAWIx5t41U23lg4raowyVEGxUs6ePskdf/sXnD55vHSqLKSEnLeEH1IWBSC1vNA0xTozJeKJci6+AtcvHA/ZvMP5wRGcKsR7z+Rn3vvzBMPh0mFFjaEEfJUZHx3hK1/4HEdfeG7Zi5a+FKSdRcr5+UXxTq+my0QgSx9ilR6l71PJo/S1qvEofY9FM35WiANyrBirvwAScKSO43r0DY5WpdbJTALBIK+6+bbSYUUNohJ5VpFUcpJ//fI/8p1v/uuKSnlGTJdfuOQE185XjdCfkYxTJlIIfGHhaSa+ZuILE6np+EJHoiGFjhQaviiMIQSeZiJLWtF4Wrk92SpBovl5xDJW9XwtWBTX6iKkiyYvFE8REjTpIHwPDR/N9xDSR+AjpIuQPpr0Cs/zHTTfRfdzaOVU9JpCB9E4f8p9xrf55tDVPHQmwNDIxLIbFC/Eh3/tN7ntDW8uHVbUIErAVwnXdfjRPd/lS5//a1LJZOl0RYQMj/fsPs1tPSXFrmb6vBfYi1IIXD1Ezmwgb8bIGxHyRpSc1UjWaiRvNpA3YrhGEFcP4GoBPD2Ir1mrZ2VuQDTfQZN5DC+F7uUxvAymO4nlJLCdSQK5IQLOBIaXxnImsZ1x7PwEYjF/lwUiWuzDOYOUZ/P5Vy7n0VMCd57qlSuhsamFP/6LzxFriJdOKWoQJeCrxMP338s/3/E5zi+RJl8Otu7xU9vO81Pb+2eNy8zCNa2zZgOJyFYSoS2kAx1k7WayVhM5M46jL7exo2L5SHQ/h+kkCDjjBHPDBDP9RLLniabPEMmcQ/dLVjBFIR1fRGZb4uN5i08/uYeT4/bMravCO977QX7qHT+rYr/rBCXgq8DD9/2AL/3D3zLY31c6tSwMzee2TYN8YN/si4EcL2ZVFvE0k9HobobjlzER3krWbiVnNeJp1T/RFStHSK9ooY8RSZ+hZeJZWiaeI5Afv3BLpRcqSYoZfT9Hsha/99BeEjnrwmAV2L5zD//hN3+XTZtV1516QQl4lRnoP8/HfuvXFqztvRwEcLBtjF+//BUs7cLukulChxyJYCy6k1e630IisgNHDxVdIIp6QUgPw8tgORP0DN5Db9930aRfqGwYKzZFLnJ6MsDvPri/suSuJdB1nQ/80q9x2+vfpKzvOkLdR1eRfC7HX/yv/15V8QZACMa9OKfTLbNc3W5A43m7h+9t+lUe3fcHDDVeSc6MK/GuQ6TQcYwIqWA3L275Oe69/LM8al9OMhoAY0YVQwk/ONtaVfEGOHT1qzh49XVKvOsMZYFXiVQyyf/7h7/hh3d/F8epXrsXTdNoiUfpaG2izZrg8ujLtOgjTOQM7h/o5ry+jytueh12cDUiQhTrh2Tg2GH8kRfZY71ImzhHMg+P9DVx3/mWqi4whyMR3vG+D/L6N/10VV9XsfooAa8Ck4kJvvvNf+Ouf//asjItF8IwdFoaY7Q3xwvlPCU4nsvw2CR5x0UIjW17LmXPwWtLn6rYACRHBzh95BH6BoYZHBnH8+ZZrV4hmq5zzatu4kO/+p+IRGOl04oaR7lQVkg+l+OBe++uvnjrOu1N8QviXSSTdXBdDyklumHQ2rV51vMUGwczGCHtaAyNTqyKeANEozFuvu31SrzrFCXgK+Tk8Zf59te/WnXxbmlsoDkemyXerueRzeXxfAkILDtIQ1PrrOcqNg66aRGINVelLdpC7N1/gP2XHyodVtQJSsBXQCad5q/+9H8yODA7PnslmIZBZ2sjbU0N6PqF3eP7PplcflaT2ub2LgxznZtMKlYNwzBpbO0gEFqdmiSGYfCzP/8RTEstetcrSsCXieu6/Lff+hXOn115os4Uhq7T2dpIc2Nslnh7nk/eccnnXTzPn67E0d69Zdbz1xrf93ByGfLpSXKpCfLpBE4miefkll33Zb3wPRcnmyafTpBLjRe+SzaF7zrr+l3CkSgN8abS4RUjhOC//8lf0tbZVTqlqCPUIuYySE5O8mef/jiHn3ysdGrZGLpOV3szzfHorLR41/Nw3IJwT6ay5PKFbD1N13nN296Paa6+9eR7Lr6TL4hbcgwnPYmbS+E5C7eTEZqOYQcxgzGscAwrHMewg2iGiVinLFApJdJz8Zwc+dQEudQYTjqJm0vjuwtHDgnNwAiEsEIxrHADVrgBwwogdGPVv0s+l+Wph+/n5SOHS6eWjRCCd7zvg7z1ne9TvS7rHCXgFZLP5fj6V77InV/7CtlsdRrH2pZJZ2sTjQ2RwkBxj3ieR77YHstxXCaSGbxiUax4UyvXv/6np1+j2kjfx8tncLIpshNDZCaG8fIVVMyaByvSSKipg0CsGdMOwxqKh/Q90mMDZMYGyCVH8d0yCm8viCAQaybU1IEZimFYhQvTqiAlzz/1KIcffxC/SnVPtm7fyW/+1/9Oa3tH6ZSizlhd82GD4fs+Tz/xCA/ce0/VxDtgW3S3NdM0Jd6ARE5b3hSTN1zPx/cvFDJtbFmdRrPSc8klx5gcOMnYqSOMHD9McujMisUbIJ8cY+LsUVLD55ALWO6rhe+5jJ16nsz4wArFG0CSTQwzdvoFRk8+x8T5lwuv6y1SA3a5CEE4GsMOBEtnlkVTcws/9Y730tSiFr83AsoCr4BXXnqRv//r/83LLx4pnVoWoYBNR2sjDZEQQghk8TbfdT0835/2vfq+JJFMk3cuWGAHb7iNzs3bZ7zaSpE4mRSp4bNkJ0dwsynkPCVwhRCEgxbhsE00aBEIGJiGjtA0kBLP88k5Lpmsy2QqRyKZnRVFoVsB4pt2E2rqnPW6q430PQaPPkY+daEkr6ZpREIWkZBNKGQRtAvfBSGguB+yeY9M1iGRypJM5RYM59PtIHY4XrjDiLYg9EXqt1fIUP95Hr3/HsaGB0unKiIQCPK6N72VN7/93SpscIOgBLxMxsdG+MLf/SUP3X8vXhVuZYMBi662ZmLh4LQf0pdy2t89E9f1GEukmNpTQghufuM7CVXpJJRSkho5R3LgFG4ujfRnfz9NEzQ2hNjc1Uhna5RIyMIwdExdQ9M1NCEK3hBZ8P54no/nSxzXI5tzGJ1I0zc0yZm+CQjEad56AE1f+5Tt5NBpkueO0toUYVNnnI6WCMGAiaHrGLqGrguEKDyQEl9KPL9wUXJcn0zWYXgsRd9QgnP947MuqFPoVoBArJlox1bMwIW7qpWQTk7y0L3fpe/sqdKpsjFMk1fddCs/+8GPEG+s/qKoYn1QAl4Gnudx57/9E/90x+eqIt62ZdLT2Uo0EkLM+PlzjjNHvAEyOYfJ1AUXRjAU4cafeDtGFRYwfc9h9ORzZCeG5rW421qiXLl/E52tMQxdQ2ii4mRrKSW+L8m5PqdGJOezjWTctffe9UTT9IQmiYVtNE2gaZV+k8JF1vclyVSeJ54/yyunh+fuMyGwI43Ee/ZghVZ+kfV9jx/f821OvXK0dKpsunu28Luf+GPl995gKAEvgyPPPMUnfvc3qhJOZhoGm7vbaIgUa5cULT3HcacXKEuZTGXJ5C5ESbR29nDohteurPCQlDi5NGOnj5BLjEwPC1GIiInHgly+t5vtm5uqHqmQ9wSnJ0zOTFikXW36zqLaCAGGkDSHXHY354ja8/++y8X3JUOjSZ492s/Z/nEyudm+dSsUo6FnD3YkvuJolccf+AEvHTm8rIXMYCjERz76X7j2hltKpxR1jhLwJTh/5jS//xsfIZ1OlU5VzJTlHZsSb8D3fPKOs2hbrNGJJK57QXy27rmU3ZddjbYCP2s+NcH4mRfJJS/UntZ1jZbGMLu2trFzSzO2tYILRBlM5jVeGbUYSRtVt8hNrSDcW+J5moMeyzC2y0ZKyZm+CZ5+4RzDYyly+QuLmZph0tC9k0jrykoeHHn6MZ594mGcfGX9Ly3b5qd+5j287T0fKJ1SbACqe9ZsMNLpFF/8/F9VRbxDAXuOeHueT951FxVvKSWeJwuhJ8VHONaAWJEiSfKpcfKZxCzx3r65hZuu2sYlO9pXXbwBopbPpW1Z9rVmaQ65FbtmFsI2fLY25rmkNUtraHXFm+KaxOauOK+9YReH9m0iHrsQMeK7DsnBlSd7BUMR9GVcsF/92jfw1ne9v3RYsUFQAr4Avu9z3/fv4vnDT5VOVUwoaNPV3kw0PMPy9n0c112y2XHBv3ohfFAUT+bKPdEzEdjR5kK0hNAQQrB3eztXH+ihpTG8luHZ6Bp0Rl32tmRpDTsrfu+w5bGnOcfWxjxBc+EL42oQtE0u3d3BVZdupjle2NdGIEysa0fpphVjB4NoWvmnqxCC62++jZ9+1/sqep6ivlB7dgEe/fGP+M43/oVcbmXx3sGATVdrE7FwaFqcPM8jn3eWFG8A1/dnWd+armFa9oqTYMxgmIbuncRb2rjpqu1cuX8T0fD6tV5rsH32tOTojDjLtpijlsdl7Rm6Yw7mjM5Fa4mua/RuauSay7bQ3dNN4+Z9BONtpZtVjB0IVOQye9VNt/KO9/0C8cbm0inFBkIJ+DycOXWCe77zTQb6zq9o4dK2Tbrbm4lFwtMLgZ7nF8S7zNf1XK/g5Sg+dMNCaOWfyAsjiERC3HLNVvZsayUYWKVMwjIRAqK2zyVtWbpj+YpFPGx5HOzM0BT0K35utTF0jZ6uODcc2kJrS0NVFoEty0YrcyF0/2WH+Ol3v5/2zq6qvLeidinviLiIyGWzPHTfD3j26SdXJN6mYdDT0UpD9IJLwvN8cvl8RTmIU6Vjpx66bqzQ/13A1CV7W3O0RpcXTrcaCMDWJftacjQHy89qDBgFX3q1o0xWgiYETWG4sitD2Kw8cqQU07QKyVKLIIRg245dvP/Dv8Kmzb1KvC8CFj8iLjKklBx76QV+8N07S6cqwjINNncVxJui8ex6Lvn8wgWTFsIvcaHohlG2JbYQupB0R/O0hd11t1bno3BxyWLrS1/qDE2ytTFHY8Bb0arAahG2JJe2Z1fs0tENY0lB3rJtBz/3S7/Glq0r97kr6oOVKcEGI5NJc+9ddzI2diEuulKmQgUbY4UsvKnU+LzjVmR5T+HL2QuYS5zDSyIEtIRctsQdrDIEcr2I2T67W7LoYuHPWLgQOXRHXWZU3605moMevfE82iLfZSmWiiPfvW8/v/Qff4s9lxwonVJsYBY/Ki4yHv3xj3jwvh+UDpdNwLbobm8mPlO8i0WpluuOkf7s5wmhFZR8mQT0Qohd1Kodd8NCbIo5dEYXLjwVtT22xPMEjOX9tmuFELAlnqcpuHJXynwcvPIafv4jv862nbtLpxQbHCXgRc6dOcVXv/j3y06Vty2TjtZG4rEIYspt4no4zgrEW85Ts08WC44sk66os2pCUm00QfFiM/fzGppkU8ypiwsRRd9+bzxPwKju5736VTfy7g98mN7tO0unFBcBSsCLtSY++0d/yPDQ8qq9GYZOW3OcpoYoWtHH4boujrOybi6y1H1CodTsctGEZGtj5REe60nU8tkSz8+56bD1gvtkpS6ltUKIgiula5E7ikoQQnDtDTfzvg/9Bzb3blvSP67YmCgBB378w3voP3+udLgsdE2jvTlOW3N8OmHCcV1yeWcFUltAUqLeouBSWe5FoTvq1Ly7oRRNQGPQoyEw2wrvachjViOacg0xdUlLyCNkVm6Fe96FOzlN17ny2uv5yEd/m7aOriWjUxQbl4t+z4+NDvPvX/vKsiJENE3Q2tRAR2uh4JOUF8S7esxWcG+Z/nRNwPbGyr9jLRA2C3VNpmxMQ5P0xKr5G68dDbZHvORiVA5ucb9HolFue/0b+ejvfIzgKjU7VtQPF7WA+77HvXfdycAyrG8hBC2NMbrbm9GEKEabuLO6xq8Gnpuft+zrUjQGXCI1FCddCYYmidsedtF/3B52sevsTmIK25A0BDyMCsMKXSdPR2cX73zfh/jgL38Uw1zfxCtFbXBRC3jf2TM8+/QTZDKVtQsTQtAcj9Ld3oKmacUmBt6Kfd7zUeoD9z0P16nckm4Nr96FJe+4DI0mGJ1YedGvhYhY/rTroSOyOta3lJJUJsfA8ASJZGXHRCU02F5ZMe4ziccbefvPfoDX/uRbVG0TxTQXbTnZfD7Pd7/5L/zr/7uDbAUCLoCWxgY625uwTRNZbDjsLFESdjl4vs/EZHqOL33/lTfStXVX2QtXmoBrN6VWJfrkuZfP8md33MXp88NomqCrrZEbrtzN62+8jI6WhtLNl43nwzMDQYbSOjdvSVXdApcSvvfjZ/i/X/0hE5NpLNNg66ZWbrlmH7deewnx2IVCZCsl7wkeOxdkLFt+xcfNmzezd+9eLGvlTTwUG4eL9lJ+7OgRvvONf61IvAEaYhE6Whuxi7ewBbdJ9cWb4sVivldNJSeQsnx3SNR2CS5j4awc8o7L4aOn+d6Pn+W79z/DHV+/n9/69Jf5wO/8DQ8/fax082WjawUrvC3sYlZovZaDEDA+mebBJ1/ingef49s/epq/+8q9/Mon/oFf++Q/8tLJvtKnLBtLl4Qtv6IImlAotKxysoqNzUUp4NlshqefeITRkeHSqUUJhwJ0tTcRsAtWkOd5ZHP5qrtNphCiUDS29JGcGJuT4LMYcdvHqEAsKsHzfNwZvSFdz2dkPMn3HniG3/rjL/PUC8vv41hK2PJorWLd8FJc18OZkQeQd1wGhif40rd+zH/73//Kmf7RWduvhIjlU3C+lYdt28p1opjDRXlEjAwN8N1v/Gvp8KJYpkF7cyPhYACK7o2Zbc5WAzHVLLiE9ORERReNkOWjV7hothAz3zadyXH/E0d55qXTMzeZ5sGnXubrdz9OMr2ykrxT2LqkIVCZ5boYM7/LyHiSRw6/wvDo5MxNpvm37z3K9x96HtetjhsqaFT2PTStULddoZjJRSngjz30ALlc+a2pDEOnraWRxngUANfzyOZyFYnocpnP6splUhW5UAIVisVC5PIuDx9+mYefPsYjh1/h7//tPv7PF783t6lvESkl37r3Sc70VcdyDZo+wSplMk6mstz32As89uxxHnjiKP/ni9/jK995uHSzaVzP55/vfKhqi5u2UUjSKgdN05T7RDEvF90iZmpykt/4pfcyMT5eOjUvmqaxqaOFtuY4Qohpt0k5zRiqQTKdJe/OjSC56SffTaCMOGBNSK7oytBehSiUY6cH+KU/+Bx9Q+MIITh+ZnDJmHfTNPi3P/8ob7jpshWXrXV90MXKC3oBPPT0MX7pDz4HSLJ5h5Pnhpe0rmORII//6yfZsWXlnd0nshoPnwvjeEt/GcMwOHjwIB0dK39fxcZirnm3wfnenV8rW7wB2lvitDVNiXexGcMaiTfFZCEhmfMo1wIXouA3rwYDwxMMjiZ48fh5Xnjl3JLiTTFC51TfSGGRVxTVd5kPXRMFN0IVHv3DEwyPT/Lcy2c5dmpgSfEGSCQznO0fKx1eFpoof78UXGnlbq24mLioBDyfy/HtCnzf8ViE9uZGNK2QqOO4Du4yi10tF0PX54gPFZzMvj/b17seTH9aKVf0EFNtieaZW95j9ucsB6NK+fueLHwbhWIlXFQC/uLzz5CcnH+RqpRgwKarvQnLLMTqFmK9V+6GqJSp4lil6Hp5McQSQQUBK4vS3tJANFxYxC0XXdPY1duBvkL3SbXpaG3Atsr7DaeIhAJs6axOj8lir+qykHL59W8UG5uLRsAdx+ErX/w8vr+0BR2wLXo6W4kEgwDk8w65ZdRKqQaFW+ei5Vl8WLZdUYPbrFsdEd+6qZW927sxjfLf+8r929jc2VxzLoDL92xhS1dL2W4MgFuvu4RIqLIL2ELkvPKDCF3XXXaZ46V47LHH+N73vscPf/hDTpw4sWrvo1gdLhoBf+LhBxjsXzoZw9B1WpsbiBXboTmOS3adxJuiD7s0EjwUjlUkiBlHx5flb78QuqbxgbfexOaultKpeYmEArzjJ65hU0dT6dS6EwxY/Mp7bydS5h1Fc2OU9735BqKRwkV9peS8ylwovu+vihX+lre8hde97nXccsstfOpTn2JsrODjl1KSzWZJp9OlT1HUEBeFgLuOwyM/vo/ExOKLl0IIopEQzfEYmhB4fqEJ8XoyXzJPONa4ZIutmSQdUbhlrwLXH9rJRz/wBrraG0unZmFbJm+46TJ+8tUHCQZqM/37Lbcd4lfecztN8UIHpYWIRYK8783Xc8OVuzCq1LstnRfICi6qU9UIq01vb+/03x0dHdi2DUAymeRP//RP+bu/+zvOnj27Ku+tWDnVORprnLNnTjLYf37Jg9AyDTpbm7BME8/zyOXyq5IiXwm+lHPWL2NNLRV1pk9kdVy//O0XQ9M0PvT2V/Nnv/8+brvuEmxrblW8tuYYH3z7zfzuL72Z7ZvbSqdrBss0+L1ffgt/9J/eyVWXbpsjzpoQbN/czq+///X82vtup60pNmt+ufgSUo5WkVsrnU6vinvjkksumf67u7ubUKhQ8+XBBx/k4x//OJ/85Cf56Ec/ynPPPbfk+aNYezZ8HLiUkm9//av88xc+Ry67eEbg9s2dNMdj+FKSy+Vx5om/XmtczyM1I5PRMC0uu/524i3ts7Zbiis703REq/d9fF9y/Owgz798lsNHTzMwNIFh6Ozb3sXBfb30bmqltTFakatnvcg7Li+fGuDpF07y7EtnGE+kCQdtLt21mYP7Cr7yahazSuU1nugLksiVv5YQj8e54oorpgW2WnziE5/gD//wD7Ftm89//vO85z3vwXVdDh06xLPPPguArut84Qtf4B3veIdKKKoxNryAp5JJ/t8//A13f/ubpVOz6Olqo7Ol4BbIreOiZSl5xyWTvZA12tDUxr6rbyIUqazS3+aGPAfaF7+ALQfflziuh+f7iGLWaiWLnLWE5/k4rjd912MaxhyrvBqcnzQ4MhQg65b/2pqmccMNN9DQUNl+X4ovfelLvPe972Xnzp38zd/8Dbfccgt33HEHH/jAB6Yt7ve973380R/9Ed3d3aVPV6wz5R9BdUrfudMcO3qkdHgW8WiYjpYLmZZ5Z+kElbVC+rP7YkYaGjHNgp+yEobSBqtxqdY0gW0ZhAIWwYBVt+INoOsaAdssfBfbWhXxlsBEVifvVfbavu8zPj6+bDeG7/u88MIL/M3f/A3Hjl2oEhmLFdxCmzZtoq2tjVwux2/+5m8ipUQIwYEDB/jgBz+oxLtGqewoqjOklPSdP8fpkydKp6YxTYOOtiY0TcP3/UIvy2WeJKuBNyPrU2gakXgThln5omDG0RhO16+4bhTSeY1ETq/I/z3FyZMnl3VsSil56KGH+MhHPsIv//Iv84UvfIFUqtB8o6mpECHU0dFBc3MzX/3qV0kmk2iaxs6dO/md3/kdbr75ZigubJ4+fXpNM5EVi7OhBTyXy9J/7syCiz+aJmhraiASDCClJJdf+0zLpSgIeMH+DoQihCINy25ie2zUXpZwKKqDlDCa1ZmowPc9k0QiQXaJdZz5yOVy/M7v/A733XcfUkr+8i//kh//+McARCKFCJx4PM65c+f4zGc+Qy6XY+fOnXziE5/gne98J6lUim9/+9t8+tOf5qMf/Shnz54teQfFerE8JagTEuPjPPnoQ6XD00RCQZriMTRdI5d3asp1wszY36L/JBCOYpdRwGohRjMGQ6nKsg8V1SPlaJxLmOTLKGC1EKOjlVd21HWd17/+9ezbtw+A4eFhPvnJTzIyMoJlWei6ju/73HHHHbz00kv09PTwmc98hp/6qZ/iRz/6Eb//+7/Pr/zKr/CpT32KO++8k6985Sulb6FYJzb0Iuaxl17gv/3mr8xrgVumQU9nK83xBlyvsFC43j+FEIJQOEg4XBBp1/UKi6nFj9Xa0UXvrn2Y1mwfuCfB8QoWXimeD65/IWmkJeRyVXe2svrgcvr/FAuxRLSNLwXHx0xeGr5wF2RqkoXc7KYOxjxzre2d7N5/qHT4AmJ+6z6TyfD444/z2c9+lm9961u4rsvrX/96PvvZz3LDDTewb98+BgYGOHHiBF//+tfZsmULH/vYxzh8+DDHjx/HKRo3QghuueUW7rrrLgxDGQPrzYYVcCklD91/L//7f368dAohBM3xGFs3dSA0SKezNeE6MU2Tq64+yA03XA3TNTAuzGvOJHp+DMFsH+SUvs5XYVpKSDuC85MmpydMTB32tWbZFKuduw0pJZPpPM6Mzj4rQQhB0DYI2OZSurpmpB3Bw2fDZByNxqBLb9yhMeAt+PmEmG9vgjBDWK27SocLaDbEtpeOTuP7PmNjY/z93/89n/rUp0gkEvyP//E/+PKXv8zJkyfJZDL86q/+KqZp8o//+I8MDw/PMX5CoRAf/vCH+cxnPjNvrXrF2rJhBdzzPP7i//vv/PhHPyidwjJNdm/bRChgk8vna2bh0jAMrrn2ELff/urSqQLZMWSyD8osJVvKaFrnif4gAcPn0rYs8cDyXqeapDMOJ8+P47jV/SyaELQ2hWhtCq97IS0p4en+IAMpg56GPDub8ljL7etphBCN20pHC+ghaNhZOjovx48f501vehMnT57ENE0mJiaIRqOF5ty+j67r6LrO9u3beetb38prX/taLrnkEmKxyso4KFaXDSvguWyWD73rTeTniefubGtmS1cbruuRyeXmWBnrhaZpXHHFAd74pttLpwpkx5GpfvCXn5AzkdN4cSiAqfvsbM4TsQrx2+uB6/m8cmaMbG7532cxdF3Q0x4jFgksaOmuNp4PZxImpyYsdjTm6Yo6K/ssZgQRv5D+PgszBtGtpaMLIqXkjjvu4OMf/zi6rhOPxzl06BCvfe1rOXToEN3d3dOp9YraZMMK+CtHX+D3fuMjpcOYpsGlu3oxDINsNldzC5f79+/hbW9/4/y3p7lEQcC9uRelSsg4gr6kiQC6Y87yrcEVMpbIcOr8xKpZdJ7n09QQoKejAX0hZ/Mq4vkwkDIYSRtsjudpsKtwlxFoREQXiMkOdUKgstIFiUSCu+++m7a2Nq6++mol2HXG2h/Va8T9P7irdAiA9uY4lmniuu66pspLKXFct5j1eeGRTGXIzsi8nIWmV2WXBU3JlniehoBHlT0XFeF5PucHxklnFvi+K8D1fIZGk6QyuXVbfs17Al2DPS256og3gDa39sw0WuX5ARRjwLu6utSiZB2ycjWoQaTv8+B995YOY1smbc2NNZOw43k+eced9ZhMpkgkkqWbFhA6zGeZLwNdQGPQwzbW7zdoiAZASl45NUT/0ETVEkRyeZezfWMkJtPEo0H0Kv1mlWIZkrawi1nNOxxjEQtZL6807kym3Ie+71ft91esHetzZK8yk8kEE/OUjm1rimOZBs4qFsgvl0KZ2LmlYtOpNOPjE6WbF9BM0KpnJYmikK8XpqFzwxVbiUUCnDk/xsmzI+TyK7srGhlP8eKxPhKTGfZub6e9Jboyn/MK0Cvoe1k2xiLFrPTKLfCp8MB8Po+7jnekiuWxIQV8eGCgdAjTNGhqjCIpVBqsCWac3bqus3fvTl73upvZvLnUxymRThqZHgRnYxXYj0UD/OSr99LWHKZ/KMHLJwZIpZfnUjk/MMHRV/rJ5V129rawb0f7qtQzWVcmzyGz40g5jwGSPA3OZEVRSlMNG5QFXp9ssKO7wIvPH571byEEbc0NWKZZ6Cq/zq6TKaYW77q7O/jUp36bD33oPRw8eCmh0OyuLzJxDsaPQ2ZkRREotYqua9x45TY6W6Mk0zmOHh9geGwSr4wuFFJKsjmH42eGOX1uBMsy2LujjYP7utHWOXxwVXCSMHkWxk8i3ZILXX4CJo/D+BHIlZexOSXg+Xx+2hpX1A8bUsCPPDtbwG3LJB6NIEShVGytIIRACMHQ4CiTkwv4vQGMyn2b9UY8FuK6g710tzfguB7HTg5x5vwY6Ux+wbUK1/UYGUty7OQgA0MJbMvg0L5urjvYW3HD4rpDMxD6AguamgX6Ir7yIlJKEokEKBdK3bLhBNz3vTnVB2OREIGARb6YpFAraEKgCYHjOPzgBw8u/NmsSFV937WIENDWHOHay7awracJTQjOD45z/PQQgyOT5J3Z4pLO5jnTV/CbJ5JZQgGTQ/s3cdnernVbtFwzhAZmqPDf+dADoC/du3Nmlx/f99d9XUhROQscAfVLLpfD8y6c7IahEwkF0IWGUyIC64mUEl/6hRA3AYcPP8/583N990DB0rKr086rlhFC0NIU5uoDm+nuKDQuSCSznD43yokzI/QNTjA8muRs3xjHTw0xMJwg73hYls7l+7rYt6Mdbb1WLNcSoYEVLR0toJmFuYXEfQZ9fbObfE8XT1PUDUvv5TpjcmIcf4YlYZsmoWAAx3Xxa6CWqu/7ZLN5stlC7Y+pEyabzfHgg4/Pb4ULHWE3LCvKoB6JRQJcf2grzY2Fol6O6zE6nuLM+VFOnBnmXP84iWQW35dYps6luzrZ1du28RYsF8KKIhYKJ9TsQkbmEkgpGRkZmTU2lUavqB823BE/Njoy61YwYFsEbBNnlbp6LwfP9/GlnPV5pJS88MLLPPvsC7O2ncYIXhRW+BQN0QBvufUSWooiLqXELbY8m2pyEbANrry0hysu2UTA3tgupmmEDuG22SFMU2gGRDYvWJFwJul0eo7PO5/PKwGvMzacgPedOzu9mq7rOtFwEF/KsiIa1gKhaQumdU9OJrn33gc5efLM3BNJaIhAY/HWeZ6TdwNi2wavv3E3W7oa5/xmAdvgsr3dXLq7c87chkXoENuEmC8bUzMgun3xTM0ZDMwTapvJZJQfvM7YcEd+//kzuE4hztvQNSLhIJ57wVWx3ohi2NycDJ7i49z5Pv79zrt5+eUTc08m3UaEWsBceoFqoxCNBLjxqm3s3d5GQzRIOGjRHA9xxSWbuHxP18Xh86YYWRLtQszn+9YsiPSWnYnpui7j43MT3VKp1NxjTlHTbDgBHzh/fvrW0DQMbMusGet7Cl3TFomUEIyOjHPmzLn5F12nQ8QuEuEComGbqw9s5sartnLdwV5efc0ODuzp2phx3guh2wvXOjFCBd93mYyPj89xn1D0gSsBry8WUpG6REpJNpuddj+EQwWLZGZj4FpA0zRMQ0cTc1PpOzvaeOMbX8sVV1yGbZecsF4OmR6C/GShg8NFhG0Z9HTE2dnbQltzoY/jRYWbhlQ/Mj9ZOlPIvkyfBTdTOjMH3/cZHR2dV8Apzivqhw0l4L7n4fkFC0IIQTQcxPVqx30yE03TMHS9mI154SE0jebmRhobG+YpsyrAz2/IbEzFEkgPnNT8p6z0IJ8oVqtcnEQiQTKZXPCcUBZ4fTHP0VC/+HJ2HGsoGMBza/OAFEJgGDpaiT98oH+QZ599kVxunnogugVmpKwoA8UGJNCIMBcoZhVsXdjFUsQvtlTLZBa21PP5hTNfFbXHxhLwGYkIpq5jm2bNuU9mIoTAMoxZzRs83+eRR57ksccOk58v7T/QCGa4bnzgUhYey0JoSM3Cs5rJxfaTa70euek1+B3X48e2I/UgCGNZv8WKPtd6YAQRodb5mycbobIaOYyPjzM0NFQ6PI2UUlngdcaGEvBMKoVTbKEWb4jg+bXpPplCSlm4wMhCA9upRy6X4+67f8Tjjz9NJpOd9Ryh6RDtAruhrGy79URKyWQ6x1giQzKdI5t3C3Hcno/vF+Lgpx6+PxXnLfG0EJ7dQj66k1zr9eTbb0TGdyGD7RBsRW/oRe+8Bjbfjmw9iB/ZjLSbcKWO6/l4Ja9d+J0lruuTy3uksw7jk1nGE5maPj4KiEIOQLgdSmufCA3MKISXjv3O5/MMDg4uWrBKFteQav83UUyxoVqqjQwN8L8//QmOHnmOXVs3EbDMmmuZNhPP83AWCXG0LItrrz3Ewcv309HZhq5fOEml70F6CHKJgl+8BnFcj7P9kyRSOTRNYFs6tqljGIUoHE0rLOICBYH1fFxfI771GuyW7Yh56r/Ytj2n3ZyUEumkGHjueziTAxi6QNM0poJUpCy8vuN6OK5PLu/iej6aEOzZ2oJh1OiFUGiFOjiBJoRVctelB8CKg924pOtESklfXx8nT55c8FijGIXS0tLCvn375vzGitpkQ+2lmS6UaDhY87eDmqbNs1B5gXw+z/33P8zXv/Fd7r33QYaGRqa/n9B0RLgNIu2Fk3wZboTVRtc0AraBpgl8X5LJuoxP5hgeyzAwkqJvKMn54mNgJMXIeIaJRJq8JxBLWJQzEUKgWRESiTSjExkGR9P0D1947b7hJIOjKcYSWZLpPI7rIyWEQ1bthiLqNoTbEeEOxMz9KwQEmiHcDcG2JcUbIJvNcu7cuUXFG+VCqUs2lIAX/JoSQ9cxDL2m/d8UhcfQ9WJnnvn/hxScPnWOBx98nKNHX8GduSgrNIQVK/jFS2+vawBNEzTGAthm+WIMEjeXRlbQlADA91zcfPnNLgxdoyUeql0BtxsQgaa59W+ECYEOMMq7aEspOX78OPmia3ExpJQqjLDO2GACXrAw7GLtk3pA1zXMJQTOMHT27tnOZZftwzBKtvXzkBkFrzZdRQHboLs9VlGhqWxiAN9dWnBmkho9h1/mbyAEtDSGCAdr76I3TWYE6c5zQfIdSJ+j3DyA48ePMzGxQIu+EnzfZ2JiYklLXVE7lH9W1RG2Zc62VGscXdexLGNBd4rn+QwMDjM6Mj7XQhJ64XZ7gefWAuGgyZauhrLT3icHjtN35F4S548y2ffyrMf4uaOMnX1xxuMFBl56mDNP343nzBN6WYIQ0NQQpLkhWLvWN6LY/7TUPSIKX8Bcuh6O7/ucOHGCwcHBsgXZL9YEL3d7xfqzoRYxB/rP8+d//EkSI300N0Tnil2NI6XEdb3pCI1SGhqiXHX15ezfv4eWliZMs2hBSh+Zm4TsCDiZsq2ztSaRynFuYJK8sz4XV13XaG4I0toUquiOYE3RzEKEUagNMb2QKAouMiMKwfYlC1b5vs/AwABnzpxZNOpkJlJKUqkUhmFw8803YxhzF5AVtUeNHsXLY8omMTSt7sSbok/cNI1Cgo9WbGk+4zGRmOSee+7nn/7pG9x//6OcOHGGVCpdrFTYgIh0F/zhRqAmLfJoyKarLUo4YJZtjVcL09BoiQdpbw7XpnhrJlgxiHQiwu0F8RZaMca7CcJbCguXZYj36OgofX19ZYs3MwIA6vG8uZjZWBZ433n+/H99ksz4EJFQ+cV9ag3P83G9xbujCCFoa2uhp6eLTZs66epqp6OjreCKcTNIJw35VKE+xnwdzNcJKSGbcxibzDI+mcVx5heMQlx4IWZ8Kq57ZuaNEIUwRF3XMHQNTdfmdSpomiActGiM2TREArXnNtEDYIUQZqTQJk0zCnHfRqTgGjNCxeJlS190pJQMDw9z/vx5kslFeqzOg+u60xb4rbfeqizwOmFDCnguMUwoUOo/rA+kLMSHu2VWUBRCEAjYNDREaWqMs2XLJno2d9PV2UbQ1pFutlBDw0mBOzspaD1xPZ9MzmFiMkcimSOXd8lkHbI5h9zMhJ/pZBxmu4aK/USFEGiawNA1bMsgGCg08LAtg2jIoiFqEwpY2NbiC8VrimYUsmmnOuvodqFEghUDLVCIPNHsihK1pJScOnWK4eHh+cswLEE+nyedThMIBJQLpY7YmAI+MUQoWL8WuJSFlHrP8yryZhdcMCaWZdLU1MTtP/mT7Ny+qSDe0kM6GciMFIsi1QaeX2i2cW5ggqPHBxmfzOAXw0ErRdMEtmmwpauRbZubiYZtdE2rHW+SbhXqmVjRgitEtwux3Ea48G+hVyTaU0gpOXbsGMPDw8t2gWQyGTKZDK2trVx11VWzksYUtcuGEvDB/j7+7I8/UdcW+Ex8v5BY4S9jF23ZvpsP/cYfYFpWwYXiZSE3DvnRgpDnJwtZnF4WKoy5Xi0832cikWVoLMXIWIqxyQypdH7Beu5CE4QCJtGQTWNDkI6WKK1NkRrq0FNcfDQjEGgAM4IwwoXsSbMo4ivE8zxeeeUVhoeHl3XRo+j/zmQy5HI5uru7ufzyy1UmZp2woQR8aKCfP/v0J8hODNa1BV6KLNZMkVM1Pko3KCEUifJzv/LbbNm+q3SqgO+Cl4H8BDI3XrDI85P4uQRCugjpA4UaLbWA5/nkHW+WdWkYOpY5VY53vREFy1lo+AjQg2jBOFixQqKVGS1kywqraovLrusyOTnJmTNnmJycp0Z4BXieRyqVwnVdNm/ezKWXXqoEvE7YUHtJ13WEptWK7lSNqYxNwzAwDANdL9YRmUcMNE3jhtt+YmHxZsoHG4XwJkTTJYi2K3Fbr+Z0vpNz2SaGnAbG3QhpP4iDjdSsJYslrSa6rhEMmIRD9vTDXiRufvUpxGm7wiYjgyS8EMNOlPO5Rk6mW+lnK7L1KkTzpRDtLaS+a9WJ1ZdSTgv3Sy+9tGLxpijgUyn0ynVSX2woCzyVTPKZT/1XxvtPEw1v/L6RhcQLiT/DBbLrksv5uV/9L+h6ZYtQJ06c4PnnnwcklqFhWzpBUxAwfGzdJ2hKQqZPyPAIGB7Cd2rG9bL6CKRmkPdNMq5G1tVIOYKMq5FzdXIuZPIe2XwhcigajXLgwAGamppKX2hFpNNpRkZGGBkZIZWqzjqGlJJMJkM2W1jg3r17Nzt27FAWeJ2woQTcyef540/8HsNnXyEWWaDw/QZCFhN/LjhVBB/6jT9g+579JVsuzsTEBI8++uj0SVyKEIU4atvQsA0fU/MJmhAwfIJFgQ8YPgHdR6M+ShgshBQ6jq9NC3XO1ch6GhlHkHU18p5G3oO84+H58586mqbR09PDnj17sKyVr8VMlYIdGxtjcnJy2b7u+fA8j2QyOW2BHzhwgM2bN6/j3Y2iEjaUgHuuy6c//rsMnHqZeCxcOr3hcF131gLnjr0HeNeHfp1wZJ7O5QuQy+V46KGHKr4V1zSBLkATEq34X11IAqaGbXgEDUnQLPzX0n0CpsQUPmJJD/7q40mNrCvIeQWhznkaGafwd8YBzwNfgicFvgRfimI4Y+krLYxpmlx66aV0dXUtSwyllCQSCYaHh0kkEuRyuVWpFJjL5aateSEEBw8eXPZnVqw9G0rAAT79sd/h7Csv0NSwsRvfToUZzuTdv/jr7D90Xdm3v1JKnnzySfr6+qpq1VHwEpf8UfgzZEksXRasdlNiCB9bB9sAQ/PR8DF1MHUw9MJzNDH/Z5MUxNXzwfUh74IvNTwpyHuCnAuu1Mi5grQjcKRGJi9wZ3p+ii89/zusjHA4zNVXX00kUt6xOOXO6O/vZ2BgoBj/vhqfrMDURWLmcXTdddfR0tIyaztF7bLhBPzv/uyPefbxB2ncwBb4BdfJBdo6N/HOX/g1unp6Z4wuzvnz53n++ecXdJ0oVk5HRwcHDx6ckxgji7W3Xdclk8kwPDy8aLf41SCdTs/Z9zfccAONjY2zxhS1S3mmWh3Ru30XurHy+Npaxi/6XsWMx65LLqOpZem+iFPkcjnOnj075wRWVJf+/n4GBwehuOicz+enXSOvvPIKTz75JEeOHGFwcHBNxdtxnDn73rIsFYVSZ2w4AW/v7EYsI5utXpjvttqyA7R2dGMHyou88X2f/v5+xsfHS6cUq8ALL7zA6dOnOXPmDCdOnOCll17i5ZdfXlHyzUrwfX+OeAPE4/ELFS4VdcGGU7qOrm4o0wdcj0zVBplJ56YtbOrdXtbCk5SSsbGxiqvVKZZPOp3mhRde4OzZs9O1Skr34Vohi42L57P24/F4VaJmFGvHhlO6hngTvlxayOqWeU78lvYu2jq6S4fnJZPJcPLkSVzXxbbtskRfsXIcxymrrdlqIqUkl8vNewERQhAKhZQLpc7YcAJuBwKIDXoQFtwnzPJ+G6ZFLN6EUeat7/Hjx8lmswghsG1bnbBrxJR4lgrnWpLP58lkMvN+hmAwSDBYngtOUTtsOAEHuOzQleScubeIG4YZq5fRhjibt+8s3WJeRkdHZ/VH1DSNYDBYdtihYmV4nrduVvhi4g3Q0NBAOLxxI7c2KhvyzD145bVks+tzoqwmcp5CVnYgSGNza8noXDKZDEePHi0dxjRNQqGQEvE1YCoKpTR+fzWRUk7X+l6o1OyU+8S2N04BuIuFDXnW9m7fRWYZRe1rnVLxBrAsm0isoXR4Fr7vc+bMmQVPYMuyCAQCyh++BriuO+8C4mowFW2SSqXm3fdT+9u2bRoaGtRFvA7ZkHssGmvAtDeeP29m3PfUQ9d1LDtQuukshoeHGRsbKx2ehW3bNR1CJgQYmsTUJLo236WsPpBS4jjOvIJaTaYShLLZ7IJuk6nxSCSisi/rlA2XiTnFnV/7Zx6+++sbxqqQMxrPzqR3515+4aP/FU2bfzEyl8tx7NixsmK+p/oiruUt/kx0DYKmT8T0iVg+tuETMCSGJtGEnL5oSUBKgSchN1XTxBEk8zqTeY28V9t3EkIIIpHIqlwwpy4Q2Wy20NFpgdM7FAqRz+cRQrBnzx56e8vP4FXUDhtWwBOJcT71mx8mYFf/JFkPLgj47PGtRQEXC1yozp8/z+nTp8sS5Zn+0rU6LAKGT2vYoyXoEg96mFqhOJYQIJDF/y6MlBcE3adQhCrj6AyndQZSBhNZnQWKBq4rtm0TCoWq6raacpnk8/klLfxDhw7R1NTE+fPn6e3tVdFIdcr8Z/0GIByOsm33vtLh+kWCQMxxocDMP2aTy+XmFCtaDCEElmWtany4EGDpkq6ow7Wb0ty2Ncll7Rm6Yw5h08fSCxa3XqxyuNSnEAI0AXrRvWLrknjAZUdTjlf1pLilN8ml7Tmitoe+1IutIeWIbCVMpehns9klX9e2beLxOMFgkO3btyvxrmM2rIBrmsah624qHa5blqOnyWSSRCJROrwoQgiCwWDVb++FgLDls7nB4ZpNaQ52ZmgJucv6XuUiKLhktjTkuGlLiv3tWZqCHrZesOzXkylXx0rxi/0sF1qoLEXTNLZu3UogsPi6iaI+2LACLoSgs3sL1oYPjZqbWs+MPofLEYkpEa+GZaYJaLA9tjTkuaw9y/62DA22t6RlXW0E0BPLc6gzw97WLB1hF1Of+7utJStJ7Jlyd6VSqUUXKinuz9bWVgzDoLGxkfb29qrsW8X6s2EFHKChsYneHXtLh+uXUv+JKJzI7jxJS/l8ntHR0dLhstF1fcXx4SHTZ2tjjv1tWfa15mgKumsu3KUEDJ9NMYd9rVn2tuRoC7to6/ShPM9b1gXWdV3S6TTpdBrHcRYVb4AdO3awf/9+du/ezZ49e4hGy2/4oahtln921gGhcJTtew+UDtct8+g3nuuQzcztj5jNZkmn06XDFWGaJsFgsGJ/uBDQEvLY35ZlR1OexqC3YFOG9SJo+vQ05LmkLcu+1iwhc2n3w2qwWHZkKbJYiCqVSpHL5cpymezcuZMdO3YQDofp7e2lqamp4v2pqF02tIDrhkFLeyfR+MYtUJ/P5ZicmB3jLYudVsoVhsWwLKviGhmbYg6Xd2RoDbuYNRyzLYCw6bO5Ic+l7Vmi9tKCWG183y8rsWeqd2Umkyl7UXrnzp1s374dwzAQQqzobkpRm2z4Pdre1bOx3CglZDNphgf7Z41JKRkZGZk1tlxmRqYshSYkl7Znuaw9Q8Dw191dUi6agNaQy4H2LPHg2vrnpZSLCviUr3tycrIsdwnFfbZt2za2b99e9cVoRW2x4QU8EovT1dOLaS0tQLXOfLe+yckJzhx/edbt9FThomqhaRqBQGBBMZiyZA91ZdnSUL81aBoDLld2ptkcz2Os4Z3DfMI8FaWSSqXKjjChuHbR29vLzp07F9xfio3DhhdwIQTb91xKe1dP6dSGQPo+YyODJMYvLFgulTa/HHRdJxAIzOntCBCxPfa1ZWkLVb4gV2sEDMm+1hy9cWfNFjdL3Sgza5jk8/k54r4Quq6zdetW9uzZoxozXCRseAEHaG7vpL17M7o+V3zqjYIVPvvRf+YU504dn95mqgdjtTFNk0AgMB2CJoCo7bGzKU9raP2iOaqNLiQ7m3NsbsivyXeacqNMWd3pdJpMJlO21U3xLmnnzp3s3r173ousYmNyUQi4YZhccf2tRGLx0qn6pETDJxPj9J09Sb4YV5xKzY1KqRaWZREKhTAMg6Dps6clR0dk7azVtWJKxLc35VbdnTJTuNPpdMU1w23b5sCBA2zfvl0tVF5kXDR7u6tnC5defcO8fuR6RyI5+uyTjA4PTFtyq4lpmkTCYTY1aRvK8i7F1iVb43k2Nzirnrnpui65XK7sCJMpgsEgBw4cYNOmTUq8L0Iumj0uhMZNt7+JXH7hFf96QIi59VAEMHDuNMP958jn16YOuqbrjLtx+jKxDd2D1CqKeFu49o6bpqYmrr76ajo6OjakYaJYmotGwAFsO8BVN78e1y3ft1hPPP7je5lYhQXMhXClxplMIydSTWQ9Y96GExuBoFmo4RJep2SfUoQQtLW1cdlllxGLxUqnFRcRF5WAA7zuzW9DGjZeBQtEtcf81taJl45w9PnDpcOrii8Fg9kIJ1JNTDiBDWuNt4QcOqLr7y4SQtDZ2cn+/fuJRCKl04qLjItOwMORKLe8/s1MpjJ1K+KFu+VSJ4pASsm58+dWVCRpOUgEY/kQJ5LN9GViZLyNF3+sC+iN52kJVeajria2bbN9+3YOHDigGhAr4GIUcICrrn81W3bsI5GsbxEvfRimSSAUI5PJkFuHnqAZz+RMJs7xZBOD2QjeBrPGg4bPnpYsQWPtLo5TtLS0TBekUgk6iikuSgGPNcR51atfSybrkM6srbW6mgTCMXTDnNWZZa3xpWDCCXIq3ciZdBzH31hlS2O2x9bGtf1dW1pa2LNnD52dnSrSRDGLi/Jo0DSNA4eu5tW3v5GJRJpsvv4zCAECkYbp1mpThf6XU660Gji+Tl8mxrFkMxlvYyWW9MTyBIy1uXNraWnhwIEDNDY2qkgTxRwuSgEHCIXD3PSa17FjzyWMjE2Syda/JR6KxWc1N/Y8j0wms2ixpNVkyjf+zHgXZ9INOL5WdqRKLu9y7yNHePt//N888swrZT9vLTA0ydZGZ4Gl5Opgmia7du3immuuUf5uxYJctAIO0NO7jWtvvpVgOMrg6CSJVAa/TkVcaBqBUHROc+OpTvPrZYkDeFLjTLqRFxNtjOeDeHLxw24yleUfvnYfb/7lP+Eb33+CP/n8txlPrF52aaUIAW0hh+AqhRWGw2Euv/xydu/erVwmikW56I+Oa65/NfsuvQwhBBOTaZKppZvC1iKWHcQw56+46HnedPeW9WTSDXA82cz5YqTKfJfK/qFx/u9X7+UPPvtVUuksnufz9IuneOTwK6WbrisBQ9IaXp2IlN7eXjo6OkqHFYo5XPQCHgqH+cmfficN8UZ8KUlMZphMFoSjnrACIfRFihhN9chcj4XNmeR8g/OZGCeSTYzmQshipIqUkhdeOc8n/vJrfPrvvsXI+CQAuq4RClhkc+t78SnF0CVNwdXpq7leLi9F/SFkvTt+q4CUkmNHj/CZT/we2UwWTRMEAyaxSAjLXFgU1wuhaYTCMYLRGKYVQNM0gtFGGjt60HRz0XoasVisJqrVCcDSXJrsNJ2BcZ5/8RV+70++wo+fOErecblkZw+3XLOXm6/ey7aeNjZ3NtMQDZW+zLqSyOk8NxhgNLPySJupjjmaphGLxbjsssJdoaZpmKapmhAr5kUJ+BRScuTZp/hfH/u9wmKmkJi6TlM8QsBe/9rKQmjEmlro2rqH5o4eLDtQ9HcXLFghxKwIlKniSDOtOSEEoVAIy7JqJqJBIHn5pSN88mN/SHM8zM+84Rpec90lbO5qIWhbWKaBtt7pjwvg+oIXhm1OjS//+LAsC8uyptueUdxPuq7P+nc4HKa9vZ2mpiblF1dMowR8Bvlcjn/50t9zz51fx5c+gkLhqKbGCKGAvS6iJ4RGMBxl6yVX0LllJ1oFlpgsNsHNZrNzImw0TUMIgW3bBAKBWXNriQDe/Z73cPr0aSzTYFdvBzdetYdbr72E6w/tImCbmLqOYWiYhl5z4nVqwubFYRtn4ZueedF1nXA4XPHdkBCCHTt20NzcrKxyhRLwUvrOneEf/vJPeenF55leZROCSMgmEgpgGhcso9XGCgRp7epl+6VXEQgtv+5FPp8nm83O61sNh8Nl9bssF4FEE7KQ3C8kGnLGfy/MT407eYeDN74RKSW2ZdLYECaTzZNIZrAtg73bu9m9tZM92zq5ZGcP3W2NRMMBOlrjNMeX/5tUi7GswbMDARK58i4sQggMwyAUCi1bgIUQNDU1sWnTJkKhUM1d1BRrhxLwEqSUvPj8Yb78+b/i7KmTBREXApBYhk4kHCBo2+j66p404WiczbsP0L19X1VOUNd1SafTc0Tctm10vWDZCiGmHwAh05+ugy2K4lwQ4xJxLv6tC4ku/OmHIXx0rfhf4aMLiaEV/p66BJ48N8S2236DoG0RCJgc2L2ZPdu6OHV+mIefPjYrfFAIQTwaYlNHE+97yw3851/4yem59cL1BU/3B+lPLm1JCyEwTZNgMLhs8Z5JKBSio6OD1tbWii15xcZACfg8eJ7H84ef5Kt3/B3nzpwuGuIFq1LTNAK2SShgE7DN6lvjQhBrbGXr3oO0dm9Bq2IbuKmY8PkWOUVxwWxKwA1NcqA9izndjUaiFS3omaI967+i8kPp8NHTHHzL79HV1sjWnjaeOnKSn7j5Mj709lvoHx7nO/c9w/2Pv8j5wdllcn/7w2/ij/7TO2eNrRdHhgKcHLfwl/j6lmVVTbynME2T9vZ2enp6qnKhV9QXao/Pg67r7L/8Ct71gV8iFJ59m+5LSTqbZ3wyxehEqurhhqFIrCjevVUVbwDDMBb0d0sp8TwP13VxHAeDPHEzQ9yaemSJmVmiZo6IkSekOwR0F0vzMDR/WeINMDyaACAcsnnNdZdg6Brf/P6T/NkX7uJtt1/F//ov7+Zz/+MXefcbX0U4dMHV8+ZbD814lfUlbBbuLhZDCFF18abY0b6vr4+RkZHSKcVFgBLwBdA0jb0HDvLeX/wPpVMAeJ5POptjeCxBukpp+Lpu0LZpW1G8q3uiT2GaZlnV7ILGBffJajI4Uoj3dlyP3u4WbrxyD3nH5a4HnuH9v/03NDdGee2rLuX//MHPccenf5nbrruEy/f2ctX+baUvtW5YRsG/vxgzm0FXG8/zOH78+LonainWHiXgi6BpGtfeeCu/+Gv/eUHRc1yPsYkkQ6MJMrn8ioQ83NBE757LV028mXIBBQqx44th6QWX0WozlbCTTucQQvDBt91M76ZWPM/na3c/xgd++6+ZmEwTj4V462uv5O6//12e/Np/xzBW7zeqlIDhL9roYeo3X01c1+XFF1+syyxixfJZ/CxWAHDdTbfyy7/5+zQ2t5ROTeM4HqPjSUYnkuTyDv5SDtEShKaxde9BrECwdKrqGIaBZS0euxww5EKNf6rKwHDBhZLK5HjlzCBvuvUQ7/rJ6wgFCp/va/c8znv/y1/x/MvnarZOjaEVFnUXIhQKVX+tZB6SySRnz54tHVZsYJSAl4HQNPZffiVv+9mfp6m5tXR6Gikhm3MYGU8yMZkmm8uX7SNvaG6npXtL6fCqMBUNsdgtvaGviX4zVPSBZ3IOZ/tGAXjvm69nW087AK7rcc+Pn+Uzn7+TvsHxWc+tFYxi2OR8GIax4N1btfF9n9HRUbLZbOmUYoOiBLxMTNPk4FXX8ZNvexfNrW2l07OQUwudiTSJZIZ0Joe7iJDrhsGuy65Fr/Ki5WIYhrFo6JlAciEQfvUYLrpQfN9ncDTB6Pgke7Z28YGfvml6G19KhscnmUxlZjyzdtD1YqRpCUIIAoHAmljfU+RyObWgeRGhBLwCgqEw1910K297zwdoiDeVTs/B8yWZXJ5EKsN4IkUimSGfd+b4yRtbu2hoWdvqc1NW+FK+8NVmYHhi+u/hsQTnBsbQNMHP//RNvOrgLmzL5M23HuJ3Pvxmtm5a+O5nPZlKXCplqYvkauC6LslkUi1oXiSs79lbhwQCQa687kb+88f+iO6ezaXTc5ES35fkHZd0JsfYZJrRiSSp9AWrvL1n+5paaVPUgoAPjRYscIDR8RT9RUFvbAjzt5/8Bf72k7/AX3/8g1x3+Q5sa21cEZXi+YL53PPr9fumUilSqdqpn65YPVQizwpwXYeP/9av0nf2NMgZSZvAdJEp5PSgEAJZTAgSCIQmCIcC3P72nycSi1944TUkk8mQycx1TexpybGtMbdodEU1+P8+dyePP3ecQMBiz7Yu3vPGV7G5s7l0s5om42o8dCZE2rkg1sutdVIttm3bRmdnZ+mwYoOhBHyFjA4P8oW//XNefuEImUy6IgGXQFNLG695y7sIliQMrRWe55FIJOa4dbY35dnVnFsyQUUBiZzGY+dDZGYIuG3bBIPBdbHAATZv3kx3d/e6vb9ibVB7d4U0tbTx87/ym/zET7+Dts4uhKjsJ21oalm0EcNqoxXrTZeSc+d3Cyjm4vradGMKihfqqfoy60Uul5u3ZIJiY7F+R9gGItYQ53Vvehvv+sCH2Xfg8opEPNowuxHxWjMVKVFK1i3/O1zsZF0xqw6KruvzXhTXktJa8IqNiTpLq4RuGBw4dDXv/MCHue7mW0unFyQQCq+rpcYC0RKZElFSLEzG1Wb9Vlqxs856ks1mlQV+EbC+R9kGQwhB16Yt/Mz7PsQHfvmjNDYtHWpoWWsbJ7wQpZmZGUfDn+EWUCxMxhHTv5Uo1vte733quq5Kq78IUAK+CkRjDVx/y2v5z3/4aS676trS6VkYpjV/FsgaY5qzS+P6EsZz6+faqRccXyPtXLDAp+Lr1xvf95WAXwQoAV8lhBC0d3Xzi//xt3n7ez9Ie2f3vKnr+hp2+FkMTdPmuFFG0nM/r2I2iZxGZsZ6wXovXk6hxPviYP2PtA2OHQjwuje/nf/4ux/n2ptuJRprmDVfGr63npRajsNpYw2S6esXCYxn9Vnx32udOr8QtfAZFKuPEvA1oq2ji/d/+D/yU+98P/svvxKjKJae69aEiE+Fvs088ZM5QXaGOClm43iCyZzGVJmb+e5i1gut2F1JsbFRZ+caIjSNG297Pe/6+Y/wjvf/Irv3XYrveTUh4BRP+pluHomgL7n+/txaJe1oTOYv/F6WZdWMaIoZvU0VGxeViblOeJ7H6PAgZ8+eJZ3Nl06vC1JKMpnMrHKkMdvjhs3pZbdM26hICWcSFs8NBqYXMBsaGuZd51gPwuEwO3fuJBwOl04pNhDKAl8ndF2ntb2T7p4tNXPbPZ8bJeVo9Kdq4/PVEo4vGM3o0+Jdevey3liWVVOfR7E6KAFfZ4LBYE3d6uq6PuvE93zBmQkT16+dz1gLZFyN4fSFC1vpAvB6owT84kAJ+DpTTn/KtaRUwAEmczqDygqfRkromzTJuheSd0oTodYb27bn7EfFxqN2lOMixTCMmjrRphJRZl5Ucq6gP2mS89ThApBydM4mLljc81301hNRzAatJcNAsTqoPbzOCCFoaJgdG77elJ78EhjN6IyqxB4Ajo9Z09Y3xd+rltxgtm3PW6BMsfFQAl4DtLQs3O1+PZgvnjnnCgZSxkVfpXAobXJ+8sJvM9/C73oTDAYJhUKlw4oNyMV9NtYIkUikpgSAeWqjSKA/aTCS1i/aOuFpR+O5QXvWgu58lRzXG8uyas4nr1gdlIDXAJqm0d3dXTq8rpS6UQBcX/DyqD0rdfxiwfPhpZG53900zZryf5umSSwWqzmDQLE6XHxnYo3S3T1/sav1YqHIimRe4/BAkKx38QiEX0zaGUwZs+4+am3xkmJUU2NjY+mwYoOiBLxG0HW95nzhC8U2j2Z0Xhqe7UrYqEhgIqdzLmGSL7lo1VryjhCCWCy24H5TbDyUgNcIQghaWlrmuC3Wk8VCHM8lTE5NWBu+6UPa0TgxZjFRUht9avGylvaXZVmqE/1FRu0cfQrC4TBNZXTxWUvmc6MAeFJwYszi9IS5YUU87Wi8MBRgIGnMaS83FS9fS3R1dWHbdumwYgOjBLyGMAyj5vyXCwk4xWa+L4/anNmAlrjvCw4PBBlIGXjzfLepZJlaQQhBe3t76bBig6MEvIYQQhCNRonH46VT64amaYtamjlX8NKoRf88Vmq94vnwVH9w0ZDJ0jDL9WbTpk0LursUGxcl4DXGVBRBrZyMQoglb8tzruC5wQBnE1ZdL2z6EhI5naf6Q4tWYKw194nyfV+8KAGvMYQQtLa20tTUVDMWXjnhcnlP8PyQzbFRm8m8Xnet2By/0LzicH/B572Q5U2NuU+EEPT09NTM51GsLUrAaxDTNOns7FzU/7yWzJdaPx+eLzg2avH8YID+ZP0sbua9woLsi8M2E7mlLz615D6JxWLE4/Ga+TyKtUUJeI0SiURobm4uHV4XpkLmymUkrfPisM2JcYtcDSf8yGJT4iNDAU6MWWTKzDCtlQurYRi0tbUt6eJSbFzKO2IVa44Qgk2bNtWMr7WSmGcJpPIax0YsDvcHGUqbS1q1a03G1TgyFOSJviDnJ02cMn33teI+EcW8gVpytSnWHtUTs8ZJp9M89dRTpcNrjud5pNNpHMcpnVoSATQGPfa25mgMuKXTa0rOE5xLWJwYN8u2uGcSDAYJBoOlw2tOLBZj9+7dNXM3oFgflIDXAadPn+bs2bPr2r1+vobHlSIENAc9emJ5GoMeAcNHWwPj0fUFGVfjbMLkXOJCJ53lEIvF1t0CN02THTt21FzSl2LtUQJeB+TzeY4ePUoikSidWlOy2SyZTGbFFxIhCt3uN8Uc4raHbUhsXaJrK3vdKSTgeIKsq5FxBENpk3OTBs4K/fG6rhONRst2Ja0W7e3t7Nixo3RYcRGiBLxOSCaTHD9+nMnJydKpNcNxHNLpNJ7nlU4tCwGELJ9I8RE2fQKGT8CQWLrEMiTaEt5zWYx+yRcFO+sWrO1UXmMyrzGZ03H90mctD9u2CYVC6+pzbmhoYPfu3TWzNqJYX5SA1wlSSsbGxjh58iSZTKZ0ek3wfZ9kMonrro4f29QKom1pElOXmDoYwsfUQRMghEQAEoGU4PgFS9vzBY4PeU8j5wkcT6xKVmgoFFrXVmXRaJTt27cTDodLpxQXKUrA6wjf9zlz5gx9fX1Vs4IrJZlMks/nS4dXDUFBvBEgpq3xwl9SFrIn1wIhBJFIZN0s30AgwI4dO2quf6pifVlfZ56iIjRNY9OmTcRisdKpNWOt+z9KwJOF+iSuL4qPwr/XSrwp/vZr+b1nomkaPT0967rfFbWJEvA6Q9d19u7dS0tLy7oISiUJPRsJTdPWZfFS13V6enrWbX8rapu1PyIVK0YIwa5du9alAcR6WqLryVr/zhTDBbu6uujq6lqX91fUPuqoqFOEEGzbtm3NLbO1fK9aQgixpt9dFItU9fT0KPFWLIhaxKxzstksp06dYmRkpLz4bCkRfh4hvaKHuQyEQAodKcxCydVEAt+vUmxenRAMBgkEAgh8hO8Uf79yEUjNRGrlLYAKIdiyZQtdXV1retFQ1B9KwDcAuVyOc+fOMTg4uGB0ivBd9PwwRn4CIZ1CCEe5Ag4gNKRm4RoxRrLmvF1qNi6SiAURkULzkgi/gotfESl0pB7ANeP4ZgNSmz+bU9M0tm3bRltbmxJvxZIoAd8g+L7P+fPnOXv2bImIS4zcCGbmPJqfA7lCy1louFInQRMpsfGjIjR8wnKcqJhAr+SuZV4EUmh4RoR8eDNSD82atW2brVu3qgJVirJRAr7BGBkZ4eWXXy6IuPQwM32Y2f4Kb/nLI0EjCdFMIb1m46HhEpfDhJis+jf0NZtsdCfSCCOEIB6Ps3Xr1poolKWoH5SAb0AymQwvv/QS2bGzmMkTCH91Em88dMZpIS2iFFJuNg4CSYMcIspE6VTV8PQw+YY9NLa009vbu65Znor6RC1vb0CCwSA7tm4m5I+vmngD6HhEmMCSudKpuseWKSKsbvEw3UsRyvexfds2Jd6KZaEEfIPi5yfxM6Olw1XHIkdH3GD71l66u7sJhwsugXrEtm1aWlro2dRNXJuYkbq/emjZYdzMeOmwQlEWyoWyAZHSp//FBxl4+dHSqVUh1r6Njr03ollhstks+Xwe13XJ5XKkUilSqRSJRIJcLldeqOMqo+s64XCYWCxGLBbDNE1s28Y0zUKDBDfH8Qf/H767encvUwih0bR5Pz2XvaZ0SqFYEiXgGxDfczn6oy+QS46VTq0KVjBKz8HXEW3ZPD0mpURKie/7sx6u65LNZkmn02QyGUZGRshkMuTz+arGlhuGQSAQoKGhgWg0SiAQIBqNYhjGdHs4TdOma7vMvGtI9B/n5BN34nuVdx9aDuGmLnZc/w6EUDfEispQAr4B8V2H5777l/h+9SNP5kPTTbZc8RM0dGwvnaqImaI/898LVT/UNG1Wh/gpIV5p5uLo6ec4++wP8L3VKZtbSijewc4b3oFYIDZcoViIlR3pitpEUGh7s1ZU6b2mxNcwDAzDmHZpRCKReR+hUAjTNKe3r6Tx8qJU6ftUgjKjFMuhCke7otYQQiPS3FM6vGoEIo2YgUjpcN0SiDTBmrkzBIYdQrtIqzwqVsZaHaWKNUQIjaaefWhrcEuu6QbR1i3YkcbSqbolEGsl3NhZOrwqaLpB8+b9Gy6OXrE2KAHfiAhBtHULbTuuxLBWL7NPN21atx6kecul6IZVOl23aLpB9/6bibVvW1V3ih1pZPPB24m1by2dUijKQi1ibmB8N08uPYGTTlR9QU5oOnY4jhmKbSjxnombS5PPJHAyk8gqRsggwLCCWKEGrGBsVS8Sio2NEnCFQqGoU5QLRaFQKOoUJeAKhUJRpygBVygUijpFCbhCoVDUKUrAFQqFok5RAq5QKBR1ihJwhUKhqFOUgCsUCkWdogRcoVAo6hQl4AqFQlGnKAFXKBSKOkUJuEKhUNQpSsAVCoWiTlECrlAoFHWKEnCFQqGoU5SAKxQKRZ2iBFyhUCjqFCXgCoVCUaf8/zmimIXNkp7DAAAAAElFTkSuQmCC;" vertex="1" parent="1">
          <mxGeometry x="285" y="249.71" width="50" height="50.42" as="geometry" />
        </mxCell>
        <mxCell id="YZPG1hd2n1wm4DBDqUJm-5" value="AWS SAM" style="fillColor=none;strokeColor=#EA6B66;dashed=1;verticalAlign=top;fontStyle=0;fontColor=#EA6B66;whiteSpace=wrap;html=1;strokeWidth=3;align=center;fontSize=13;" vertex="1" parent="1">
          <mxGeometry x="60" y="290" width="500" height="200" as="geometry" />
        </mxCell>
        <mxCell id="OBpt39Y3jAKSA9RKNwWW-7" value="Lambda" style="sketch=0;points=[[0,0,0],[0.25,0,0],[0.5,0,0],[0.75,0,0],[1,0,0],[0,1,0],[0.25,1,0],[0.5,1,0],[0.75,1,0],[1,1,0],[0,0.25,0],[0,0.5,0],[0,0.75,0],[1,0.25,0],[1,0.5,0],[1,0.75,0]];outlineConnect=0;fontColor=light-dark(#232F3E, #000000);fillColor=#ED7100;strokeColor=#ffffff;dashed=0;verticalLabelPosition=bottom;verticalAlign=top;align=center;html=1;fontSize=12;fontStyle=0;aspect=fixed;shape=mxgraph.aws4.resourceIcon;resIcon=mxgraph.aws4.lambda;" parent="1" vertex="1">
          <mxGeometry x="330" y="355" width="60" height="60" as="geometry" />
        </mxCell>
        <mxCell id="OBpt39Y3jAKSA9RKNwWW-3" value="S3" style="sketch=0;points=[[0,0,0],[0.25,0,0],[0.5,0,0],[0.75,0,0],[1,0,0],[0,1,0],[0.25,1,0],[0.5,1,0],[0.75,1,0],[1,1,0],[0,0.25,0],[0,0.5,0],[0,0.75,0],[1,0.25,0],[1,0.5,0],[1,0.75,0]];outlineConnect=0;fontColor=light-dark(#232F3E, #000000);fillColor=#7AA116;strokeColor=#ffffff;dashed=0;verticalLabelPosition=bottom;verticalAlign=top;align=center;html=1;fontSize=12;fontStyle=0;aspect=fixed;shape=mxgraph.aws4.resourceIcon;resIcon=mxgraph.aws4.s3;" parent="1" vertex="1">
          <mxGeometry x="80" y="355" width="60" height="60" as="geometry" />
        </mxCell>
        <mxCell id="OBpt39Y3jAKSA9RKNwWW-20" style="edgeStyle=orthogonalEdgeStyle;rounded=0;orthogonalLoop=1;jettySize=auto;html=1;entryX=0;entryY=0.5;entryDx=0;entryDy=0;entryPerimeter=0;startSize=8;textShadow=1;fontColor=light-dark(#000000,#000000);labelBackgroundColor=none;strokeColor=light-dark(#000000,#181818);" parent="1" source="OBpt39Y3jAKSA9RKNwWW-3" target="OBpt39Y3jAKSA9RKNwWW-7" edge="1">
          <mxGeometry relative="1" as="geometry" />
        </mxCell>
        <mxCell id="OBpt39Y3jAKSA9RKNwWW-30" value="CSV解析・EC2構築" style="text;html=1;align=center;verticalAlign=middle;resizable=0;points=[];autosize=1;strokeColor=none;fillColor=none;fontSize=14;fontColor=light-dark(#000000,#0C0C0C);" parent="1" vertex="1">
          <mxGeometry x="390" y="345" width="150" height="30" as="geometry" />
        </mxCell>
        <mxCell id="OBpt39Y3jAKSA9RKNwWW-46" value="VPC" style="points=[[0,0],[0.25,0],[0.5,0],[0.75,0],[1,0],[1,0.25],[1,0.5],[1,0.75],[1,1],[0.75,1],[0.5,1],[0.25,1],[0,1],[0,0.75],[0,0.5],[0,0.25]];outlineConnect=0;gradientColor=none;html=1;whiteSpace=wrap;fontSize=12;fontStyle=0;container=1;pointerEvents=0;collapsible=0;recursiveResize=0;shape=mxgraph.aws4.group;grIcon=mxgraph.aws4.group_vpc2;strokeColor=#8C4FFF;fillColor=none;verticalAlign=top;align=left;spacingLeft=30;fontColor=#AAB7B8;dashed=0;" parent="1" vertex="1">
          <mxGeometry x="590" y="290" width="210" height="190" as="geometry" />
        </mxCell>
        <mxCell id="OBpt39Y3jAKSA9RKNwWW-44" value="Private subnet" style="points=[[0,0],[0.25,0],[0.5,0],[0.75,0],[1,0],[1,0.25],[1,0.5],[1,0.75],[1,1],[0.75,1],[0.5,1],[0.25,1],[0,1],[0,0.75],[0,0.5],[0,0.25]];outlineConnect=0;gradientColor=none;html=1;whiteSpace=wrap;fontSize=12;fontStyle=0;container=1;pointerEvents=0;collapsible=0;recursiveResize=0;shape=mxgraph.aws4.group;grIcon=mxgraph.aws4.group_security_group;grStroke=0;strokeColor=#00A4A6;fillColor=#E6F6F7;verticalAlign=top;align=left;spacingLeft=30;fontColor=#147EBA;dashed=0;" parent="OBpt39Y3jAKSA9RKNwWW-46" vertex="1">
          <mxGeometry x="30" y="30" width="150" height="140" as="geometry" />
        </mxCell>
        <mxCell id="OBpt39Y3jAKSA9RKNwWW-45" value="EC2&lt;div&gt;&lt;br&gt;&lt;/div&gt;" style="sketch=0;points=[[0,0,0],[0.25,0,0],[0.5,0,0],[0.75,0,0],[1,0,0],[0,1,0],[0.25,1,0],[0.5,1,0],[0.75,1,0],[1,1,0],[0,0.25,0],[0,0.5,0],[0,0.75,0],[1,0.25,0],[1,0.5,0],[1,0.75,0]];outlineConnect=0;fontColor=#232F3E;fillColor=#ED7100;strokeColor=#ffffff;dashed=0;verticalLabelPosition=bottom;verticalAlign=top;align=center;html=1;fontSize=12;fontStyle=0;aspect=fixed;shape=mxgraph.aws4.resourceIcon;resIcon=mxgraph.aws4.ec2;" parent="OBpt39Y3jAKSA9RKNwWW-44" vertex="1">
          <mxGeometry x="43" y="33" width="64" height="64" as="geometry" />
        </mxCell>
        <mxCell id="OBpt39Y3jAKSA9RKNwWW-29" style="edgeStyle=orthogonalEdgeStyle;rounded=0;orthogonalLoop=1;jettySize=auto;html=1;strokeColor=light-dark(#000000,#0A0A0A);" parent="1" source="OBpt39Y3jAKSA9RKNwWW-7" target="OBpt39Y3jAKSA9RKNwWW-45" edge="1">
          <mxGeometry relative="1" as="geometry">
            <mxPoint x="460" y="385" as="sourcePoint" />
            <mxPoint x="520" y="385" as="targetPoint" />
          </mxGeometry>
        </mxCell>
        <mxCell id="OBpt39Y3jAKSA9RKNwWW-26" value="S3イベント通知&lt;br&gt;&lt;div&gt;&lt;br&gt;&lt;/div&gt;" style="text;html=1;align=center;verticalAlign=middle;resizable=0;points=[];autosize=1;strokeColor=none;fillColor=none;fontSize=14;fontColor=light-dark(#000000,#020202);" parent="1" vertex="1">
          <mxGeometry x="175" y="345" width="120" height="50" as="geometry" />
        </mxCell>
      </root>
    </mxGraphModel>
  </diagram>
</mxfile>
